<svg width="212" height="221" viewBox="0 0 212 221" fill="none" xmlns="http://www.w3.org/2000/svg">
<path d="M178.147 115.04H33.8789V175.814H178.147V115.04Z" fill="#38BFF2" stroke="#263238" stroke-linecap="round" stroke-linejoin="round"/>
<path d="M50.4654 118.719H36.8936V126.232H50.4654V118.719Z" fill="white" stroke="#263238" stroke-miterlimit="10"/>
<path d="M174.807 155.351H153.43V162.864H174.807V155.351Z" fill="white" stroke="#263238" stroke-miterlimit="10"/>
<path d="M174.814 128.102H161.617V135.615H174.814V128.102Z" fill="white" stroke="#263238" stroke-miterlimit="10"/>
<path d="M50.4654 146.087H36.8936V153.6H50.4654V146.087Z" fill="white" stroke="#263238" stroke-miterlimit="10"/>
<path d="M47.8824 137.035H36.8936V144.548H47.8824V137.035Z" fill="white" stroke="#263238" stroke-miterlimit="10"/>
<path d="M44.405 127.877H36.8936V135.39H44.405V127.877Z" fill="white" stroke="#263238" stroke-miterlimit="10"/>
<path d="M53.9992 127.877H46.4878V135.39H53.9992V127.877Z" fill="white" stroke="#263238" stroke-miterlimit="10"/>
<path d="M63.5871 127.877H56.0757V135.39H63.5871V127.877Z" fill="white" stroke="#263238" stroke-miterlimit="10"/>
<path d="M73.175 127.877H65.6636V135.39H73.175V127.877Z" fill="white" stroke="#263238" stroke-miterlimit="10"/>
<path d="M82.7693 127.877H75.2578V135.39H82.7693V127.877Z" fill="white" stroke="#263238" stroke-miterlimit="10"/>
<path d="M92.3572 127.877H84.8457V135.39H92.3572V127.877Z" fill="white" stroke="#263238" stroke-miterlimit="10"/>
<path d="M101.945 127.877H94.4331V135.39H101.945V127.877Z" fill="white" stroke="#263238" stroke-miterlimit="10"/>
<path d="M111.539 127.877H104.027V135.39H111.539V127.877Z" fill="white" stroke="#263238" stroke-miterlimit="10"/>
<path d="M121.127 127.877H113.615V135.39H121.127V127.877Z" fill="white" stroke="#263238" stroke-miterlimit="10"/>
<path d="M130.721 127.877H123.209V135.39H130.721V127.877Z" fill="white" stroke="#263238" stroke-miterlimit="10"/>
<path d="M140.309 127.877H132.797V135.39H140.309V127.877Z" fill="white" stroke="#263238" stroke-miterlimit="10"/>
<path d="M149.897 127.877H142.385V135.39H149.897V127.877Z" fill="white" stroke="#263238" stroke-miterlimit="10"/>
<path d="M159.49 127.877H151.979V135.39H159.49V127.877Z" fill="white" stroke="#263238" stroke-miterlimit="10"/>
<path d="M44.405 164.616H36.8936V172.129H44.405V164.616Z" fill="white" stroke="#263238" stroke-miterlimit="10"/>
<path d="M53.9992 164.616H46.4878V172.129H53.9992V164.616Z" fill="white" stroke="#263238" stroke-miterlimit="10"/>
<path d="M63.5871 164.616H56.0757V172.129H63.5871V164.616Z" fill="white" stroke="#263238" stroke-miterlimit="10"/>
<path d="M74.8324 164.616H65.6636V172.129H74.8324V164.616Z" fill="white" stroke="#263238" stroke-miterlimit="10"/>
<path d="M122.784 164.616H76.9087V172.129H122.784V164.616Z" fill="white" stroke="#263238" stroke-miterlimit="10"/>
<path d="M155.307 164.616H147.795V172.129H155.307V164.616Z" fill="white" stroke="#263238" stroke-miterlimit="10"/>
<path d="M164.913 164.616H157.402V172.129H164.913V164.616Z" fill="white" stroke="#263238" stroke-miterlimit="10"/>
<path d="M136.324 164.616H124.66V172.129H136.324V164.616Z" fill="white" stroke="#263238" stroke-miterlimit="10"/>
<path d="M174.808 164.616H167.296V172.129H174.808V164.616Z" fill="white" stroke="#263238" stroke-miterlimit="10"/>
<path d="M57.5266 137.035H50.0151V144.548H57.5266V137.035Z" fill="white" stroke="#263238" stroke-miterlimit="10"/>
<path d="M67.1145 137.035H59.603V144.548H67.1145V137.035Z" fill="white" stroke="#263238" stroke-miterlimit="10"/>
<path d="M76.7087 137.035H69.1973V144.548H76.7087V137.035Z" fill="white" stroke="#263238" stroke-miterlimit="10"/>
<path d="M86.2966 137.035H78.7852V144.548H86.2966V137.035Z" fill="white" stroke="#263238" stroke-miterlimit="10"/>
<path d="M95.8908 137.035H88.3794V144.548H95.8908V137.035Z" fill="white" stroke="#263238" stroke-miterlimit="10"/>
<path d="M105.479 137.035H97.9673V144.548H105.479V137.035Z" fill="white" stroke="#263238" stroke-miterlimit="10"/>
<path d="M115.067 137.035H107.555V144.548H115.067V137.035Z" fill="white" stroke="#263238" stroke-miterlimit="10"/>
<path d="M124.66 137.035H117.149V144.548H124.66V137.035Z" fill="white" stroke="#263238" stroke-miterlimit="10"/>
<path d="M134.248 137.035H126.737V144.548H134.248V137.035Z" fill="white" stroke="#263238" stroke-miterlimit="10"/>
<path d="M143.836 137.035H136.325V144.548H143.836V137.035Z" fill="white" stroke="#263238" stroke-miterlimit="10"/>
<path d="M153.43 137.035H145.919V144.548H153.43V137.035Z" fill="white" stroke="#263238" stroke-miterlimit="10"/>
<path d="M163.018 137.035H155.507V144.548H163.018V137.035Z" fill="white" stroke="#263238" stroke-miterlimit="10"/>
<path d="M174.808 137.035V153.712H167.296V144.548H165.095V137.035H174.808Z" fill="white" stroke="#263238" stroke-miterlimit="10"/>
<path d="M59.7282 146.193H52.2168V153.706H59.7282V146.193Z" fill="white" stroke="#263238" stroke-miterlimit="10"/>
<path d="M69.3161 146.193H61.8047V153.706H69.3161V146.193Z" fill="white" stroke="#263238" stroke-miterlimit="10"/>
<path d="M78.904 146.193H71.3926V153.706H78.904V146.193Z" fill="white" stroke="#263238" stroke-miterlimit="10"/>
<path d="M88.4983 146.193H80.9868V153.706H88.4983V146.193Z" fill="white" stroke="#263238" stroke-miterlimit="10"/>
<path d="M98.0857 146.193H90.5742V153.706H98.0857V146.193Z" fill="white" stroke="#263238" stroke-miterlimit="10"/>
<path d="M107.68 146.193H100.168V153.706H107.68V146.193Z" fill="white" stroke="#263238" stroke-miterlimit="10"/>
<path d="M117.268 146.193H109.756V153.706H117.268V146.193Z" fill="white" stroke="#263238" stroke-miterlimit="10"/>
<path d="M126.856 146.193H119.344V153.706H126.856V146.193Z" fill="white" stroke="#263238" stroke-miterlimit="10"/>
<path d="M136.45 146.193H128.938V153.706H136.45V146.193Z" fill="white" stroke="#263238" stroke-miterlimit="10"/>
<path d="M146.038 146.193H138.526V153.706H146.038V146.193Z" fill="white" stroke="#263238" stroke-miterlimit="10"/>
<path d="M155.626 146.193H148.114V153.706H155.626V146.193Z" fill="white" stroke="#263238" stroke-miterlimit="10"/>
<path d="M165.22 146.193H157.708V153.706H165.22V146.193Z" fill="white" stroke="#263238" stroke-miterlimit="10"/>
<path d="M55.6501 155.351H48.1387V162.864H55.6501V155.351Z" fill="white" stroke="#263238" stroke-miterlimit="10"/>
<path d="M65.238 155.351H57.7266V162.864H65.238V155.351Z" fill="white" stroke="#263238" stroke-miterlimit="10"/>
<path d="M74.8322 155.351H67.3208V162.864H74.8322V155.351Z" fill="white" stroke="#263238" stroke-miterlimit="10"/>
<path d="M84.4201 155.351H76.9087V162.864H84.4201V155.351Z" fill="white" stroke="#263238" stroke-miterlimit="10"/>
<path d="M94.0144 155.351H86.5029V162.864H94.0144V155.351Z" fill="white" stroke="#263238" stroke-miterlimit="10"/>
<path d="M103.602 155.351H96.0903V162.864H103.602V155.351Z" fill="white" stroke="#263238" stroke-miterlimit="10"/>
<path d="M113.19 155.351H105.679V162.864H113.19V155.351Z" fill="white" stroke="#263238" stroke-miterlimit="10"/>
<path d="M122.784 155.351H115.273V162.864H122.784V155.351Z" fill="white" stroke="#263238" stroke-miterlimit="10"/>
<path d="M132.372 155.351H124.861V162.864H132.372V155.351Z" fill="white" stroke="#263238" stroke-miterlimit="10"/>
<path d="M141.96 155.351H134.448V162.864H141.96V155.351Z" fill="white" stroke="#263238" stroke-miterlimit="10"/>
<path d="M151.554 155.351H144.042V162.864H151.554V155.351Z" fill="white" stroke="#263238" stroke-miterlimit="10"/>
<path d="M59.7282 119.169H52.2168V126.682H59.7282V119.169Z" fill="white" stroke="#263238" stroke-miterlimit="10"/>
<path d="M69.3161 119.169H61.8047V126.682H69.3161V119.169Z" fill="white" stroke="#263238" stroke-miterlimit="10"/>
<path d="M78.904 119.169H71.3926V126.682H78.904V119.169Z" fill="white" stroke="#263238" stroke-miterlimit="10"/>
<path d="M88.4983 119.169H80.9868V126.682H88.4983V119.169Z" fill="white" stroke="#263238" stroke-miterlimit="10"/>
<path d="M98.0857 119.169H90.5742V126.682H98.0857V119.169Z" fill="white" stroke="#263238" stroke-miterlimit="10"/>
<path d="M107.68 119.169H100.168V126.682H107.68V119.169Z" fill="white" stroke="#263238" stroke-miterlimit="10"/>
<path d="M117.268 119.169H109.756V126.682H117.268V119.169Z" fill="white" stroke="#263238" stroke-miterlimit="10"/>
<path d="M126.856 119.169H119.344V126.682H126.856V119.169Z" fill="white" stroke="#263238" stroke-miterlimit="10"/>
<path d="M136.45 119.169H128.938V126.682H136.45V119.169Z" fill="white" stroke="#263238" stroke-miterlimit="10"/>
<path d="M146.038 119.169H138.526V126.682H146.038V119.169Z" fill="white" stroke="#263238" stroke-miterlimit="10"/>
<path d="M155.626 119.169H148.114V126.682H155.626V119.169Z" fill="white" stroke="#263238" stroke-miterlimit="10"/>
<path d="M165.22 119.169H157.708V126.682H165.22V119.169Z" fill="white" stroke="#263238" stroke-miterlimit="10"/>
<path d="M174.808 119.169H167.296V126.682H174.808V119.169Z" fill="white" stroke="#263238" stroke-miterlimit="10"/>
<path d="M45.9936 155.351H36.8936V162.864H45.9936V155.351Z" fill="white" stroke="#263238" stroke-miterlimit="10"/>
<path d="M33.8789 115.428L36.8935 114.421H176.19L178.172 115.415L33.8789 115.428Z" fill="#263238"/>
<path d="M160.21 187.43L160.285 159.774C160.586 158.661 160.829 154.557 161.467 151.698C162.556 146.906 158.278 141.126 157.978 140.938C156.777 140.188 154.225 140.2 154.225 140.2C154.225 140.2 151.723 137.348 149.49 136.447C147.956 135.902 146.321 135.699 144.7 135.853C142.98 134.433 141.063 133.271 139.008 132.406C138.204 132.102 137.331 132.025 136.486 132.184C135.641 132.343 134.856 132.731 134.217 133.307L131.403 137.686C130.992 138.307 130.805 139.05 130.875 139.792C130.944 140.534 131.265 141.23 131.784 141.764C133.123 143.078 134.837 142.465 135.7 142.465C136.894 142.465 137.345 141.114 137.345 141.114C137.345 141.114 137.638 148.151 137.345 149.052C137.038 149.947 134.799 152.042 134.799 152.042L127.294 142.14C124.717 138.643 122.463 134.92 120.558 131.017C120.341 130.541 120.056 130.099 119.714 129.703C118.4 128.221 115.592 127.783 114.86 130.535C114.68 131.416 114.721 132.327 114.979 133.188C118.106 142.434 122.096 149.421 125.73 156.703C127.888 161.025 127.087 160.975 128.163 162.927C128.038 163.015 128.101 163.177 127.963 163.259C127.438 165.36 127.069 167.469 126.537 169.57C126.097 166.932 125.29 164.367 124.142 161.951C124.445 160.487 124.556 158.99 124.473 157.497C124.379 155.989 123.707 154.575 122.597 153.55C121.975 153.047 121.212 152.75 120.414 152.699C119.842 152.662 119.278 152.841 118.833 153.202C118.387 153.562 118.095 154.077 118.012 154.645C117.888 155.789 117.679 156.922 117.387 158.035C116.909 159.489 116.332 160.908 115.661 162.283C115.661 165.079 117.387 164.622 118.644 175.845C119.62 184.603 130.878 190.364 137.007 196.676L144.266 218.123C153.398 213.825 157.159 211.676 164.949 205.767L160.21 187.43Z" fill="white"/>
<path d="M122.752 172.292C122.828 172.154 122.89 172.016 122.953 171.873C122.886 171.919 122.833 171.983 122.798 172.056C122.763 172.129 122.747 172.211 122.752 172.292Z" fill="#92E3A9"/>
<path d="M140.783 133.594C139.925 132.923 138.904 132.492 137.825 132.343L140.783 133.594Z" fill="#92E3A9"/>
<path d="M137.45 136.522L137.488 136.835C137.51 136.729 137.496 136.619 137.45 136.522Z" fill="#92E3A9"/>
<g opacity="0.5">
<path opacity="0.5" d="M122.752 172.292C122.828 172.154 122.89 172.016 122.953 171.873C122.886 171.919 122.833 171.983 122.798 172.056C122.763 172.129 122.747 172.211 122.752 172.292Z" fill="white"/>
<path opacity="0.5" d="M140.783 133.594C139.925 132.923 138.904 132.492 137.825 132.343L140.783 133.594Z" fill="white"/>
<path opacity="0.5" d="M137.45 136.522L137.488 136.835C137.51 136.729 137.496 136.619 137.45 136.522Z" fill="white"/>
<path opacity="0.5" d="M140.896 163.653C140.615 162.952 139.251 160.938 138.457 162.333L140.896 163.653Z" fill="white"/>
</g>
<path d="M117.643 160.287C116.916 160.86 116.296 161.557 115.811 162.345L117.643 160.287Z" fill="white"/>
<path d="M144.266 218.123L137.069 196.657C130.94 190.345 119.682 184.571 118.707 175.826C117.456 164.603 115.723 165.06 115.723 162.264C116.395 160.889 116.971 159.47 117.449 158.016C117.741 156.903 117.95 155.77 118.075 154.626C118.157 154.059 118.45 153.544 118.895 153.183C119.34 152.822 119.905 152.643 120.477 152.68C121.275 152.731 122.037 153.028 122.659 153.531C123.77 154.556 124.442 155.97 124.536 157.478C124.619 158.971 124.507 160.468 124.204 161.932C125.353 164.348 126.159 166.913 126.6 169.552C127.131 167.45 127.5 165.342 128.026 163.24C128.163 163.158 128.101 162.996 128.226 162.908C127.15 160.956 127.95 161.031 125.793 156.684C122.159 149.402 118.175 142.415 115.042 133.169C114.784 132.308 114.743 131.397 114.923 130.517C115.654 127.764 118.463 128.202 119.776 129.685C120.119 130.08 120.403 130.522 120.62 130.998C122.525 134.901 124.78 138.624 127.356 142.121L134.862 152.023C134.862 152.023 137.101 149.928 137.407 149.033C137.701 148.132 137.407 141.095 137.407 141.095C137.407 141.095 136.957 142.446 135.762 142.446C134.899 142.446 133.185 143.072 131.847 141.745C131.323 141.22 130.993 140.531 130.912 139.793C130.831 139.055 131.004 138.312 131.403 137.685L134.199 133.307C134.838 132.731 135.623 132.343 136.468 132.184C137.313 132.025 138.185 132.102 138.989 132.406C141.044 133.271 142.962 134.433 144.681 135.853C146.302 135.699 147.937 135.902 149.472 136.447C151.723 137.354 154.206 140.2 154.206 140.2C154.206 140.2 156.752 140.2 157.959 140.938C158.259 141.126 162.537 146.906 161.449 151.698C160.823 154.557 160.567 158.661 160.267 159.774L160.192 187.43L165.218 205.767" stroke="#263238" stroke-miterlimit="10"/>
<path d="M145.387 136.828C146.489 140.909 147.06 145.114 147.088 149.34C147.053 150.048 147.129 150.757 147.314 151.442C147.411 151.782 147.593 152.092 147.844 152.341C148.095 152.591 148.405 152.772 148.746 152.868" stroke="#263238" stroke-miterlimit="10"/>
<path d="M154.231 140.938C156.107 144.854 154.187 153.6 154.325 154.219C154.384 154.53 154.509 154.825 154.691 155.084C154.873 155.343 155.109 155.56 155.382 155.72" stroke="#263238" stroke-miterlimit="10"/>
<path d="M138.107 136.291C137.888 137.542 137.707 138.98 137.482 140.225C136.754 139.599 136.158 138.834 135.728 137.974C135.299 137.115 135.044 136.179 134.98 135.221" stroke="#263238" stroke-miterlimit="10"/>
<path d="M126.124 169.671L124.773 170.265" stroke="#263238" stroke-miterlimit="10"/>
<path d="M126.468 170.753C126.252 171.797 126.252 172.874 126.468 173.918" stroke="#263238" stroke-miterlimit="10"/>
<path d="M134.374 159.061L135.868 161.757" stroke="#263238" stroke-miterlimit="10"/>
<path d="M137.25 149.196L138.739 147.094" stroke="#263238" stroke-miterlimit="10"/>
<path d="M158.184 159.061L157.733 160.712" stroke="#263238" stroke-miterlimit="10"/>
<path d="M154.543 154.576C154.96 153.174 155.4 151.773 155.863 150.372" stroke="#263238" stroke-miterlimit="10"/>
<path d="M158.921 147.1C159.317 146.893 159.779 146.851 160.206 146.983C160.632 147.116 160.989 147.412 161.198 147.807" stroke="#263238" stroke-miterlimit="10"/>
<path d="M149.959 139.919C150.478 139.773 151.026 139.76 151.551 139.88C152.077 140 152.564 140.25 152.968 140.607" stroke="#263238" stroke-miterlimit="10"/>
<path d="M122.103 144.091C122.588 143.559 123.192 143.149 123.866 142.895C124.54 142.64 125.264 142.549 125.98 142.627" stroke="#263238" stroke-miterlimit="10"/>
<path d="M116.455 132.293C116.902 131.971 117.408 131.74 117.945 131.613C118.481 131.486 119.038 131.467 119.582 131.555" stroke="#263238" stroke-miterlimit="10"/>
<path d="M117.643 160.287C116.916 160.86 116.296 161.557 115.811 162.345" stroke="#263238" stroke-miterlimit="10"/>
<path d="M118.219 157.441C119.207 156.74 120.783 158.317 121.69 157.51C121.851 157.328 121.963 157.11 122.016 156.873C122.07 156.637 122.063 156.391 121.996 156.158C121.863 155.693 121.802 155.21 121.815 154.726" stroke="#263238" stroke-miterlimit="10"/>
<path d="M146.106 153.106C147.31 155.604 147.555 158.458 146.794 161.125" stroke="#263238" stroke-miterlimit="10"/>
<path d="M153.374 156.965C153.569 158.148 153.348 159.362 152.749 160.4" stroke="#263238" stroke-miterlimit="10"/>
<path d="M90.5148 156.614C90.2459 155.363 88.4884 155.557 88.4884 155.557C82.5781 155.901 81.7838 165.165 81.7838 165.165L79.6636 171.515L79.0381 161.969L79.1007 149.664C79.1007 149.664 80.8894 137.891 80.0951 136.046C79.9137 135.537 79.5835 135.094 79.1475 134.775C78.7114 134.456 78.1896 134.275 77.6497 134.256C74.2098 133.393 74.0097 138.354 74.0097 138.354L71.1076 148.475L69.8818 159.392L68.8936 158.86C68.8936 158.86 68.4245 147.281 68.6247 147.087C68.8248 146.893 70.0131 139.079 70.0131 139.079C70.0131 139.079 70.6386 137.628 71.4704 135.777C71.7054 135.257 71.827 134.693 71.827 134.122C71.827 133.551 71.7054 132.987 71.4704 132.467C70.0757 129.621 67.1737 130.947 66.5733 132.467C65.8684 134.011 65.0748 135.513 64.1966 136.965L60.8818 146.029C61.0069 148.081 59.8311 158.197 59.8311 158.197L58.6365 157.659L56.7165 151.716L58.18 145.629C58.18 145.629 61.3759 142.126 60.8193 140.062C60.2627 137.997 57.5796 138.61 57.5796 138.61L52.1633 145.085H50.5685L46.8159 149.852C45.1124 154.964 44.8079 160.44 45.934 165.71L46.7971 169.732V195.737C46.7971 195.737 44.2266 199.903 44.2266 200.297C44.2266 200.479 41.7938 204.892 40.3115 208.99C46.7702 213.213 53.7422 216.78 62.0693 220.272C64.4397 213.597 68.4808 204.476 70.0131 202.812C73.0527 199.503 79.0069 193.153 79.0069 193.153C79.0069 193.153 85.7678 182.287 86.5621 178.671C87.1875 175.706 88.8011 170.326 89.3515 168.481C89.4793 168.062 89.5302 167.623 89.5016 167.186C89.4578 166.21 89.364 164.315 89.364 162.644C89.364 160.23 90.7712 157.846 90.5148 156.614Z" fill="white"/>
<path d="M40.3115 208.99C42.1918 204.692 44.8301 198.697 44.8301 198.515C44.8301 198.121 47.4007 193.955 47.4007 193.955V167.957L46.5376 163.959C45.4122 158.703 45.7102 153.241 47.4007 148.139L51.1533 143.372H52.7481L58.1643 136.897C58.1643 136.897 60.8787 136.272 61.4041 138.349C61.9295 140.426 58.7648 143.904 58.7648 143.904L57.3012 149.99L59.2213 155.933L60.4159 156.471C60.4159 156.471 61.5917 146.356 61.4666 144.304L64.7814 135.24C65.6596 133.787 66.4532 132.286 67.1581 130.742C67.7835 129.222 70.6605 127.896 72.0552 130.742C72.2902 131.262 72.4118 131.826 72.4118 132.396C72.4118 132.967 72.2902 133.531 72.0552 134.051C71.2546 135.928 70.5979 137.354 70.5979 137.354C70.5979 137.354 69.4096 145.161 69.2095 145.361C69.0093 145.561 69.4784 157.134 69.4784 157.134L70.4666 157.666L71.6612 146.75L74.5632 136.628C74.5632 136.628 74.7633 131.668 78.2032 132.531C78.7431 132.55 79.265 132.73 79.701 133.049C80.1371 133.368 80.4672 133.811 80.6486 134.32C81.4429 136.165 79.6542 147.939 79.6542 147.939L79.5917 160.243L80.2171 169.789L82.3373 163.44C82.3373 163.44 83.1316 154.175 89.0419 153.831C89.0419 153.831 90.7994 153.65 91.0683 154.889C91.3373 156.127 89.9175 158.504 89.9175 160.888C89.9175 162.558 90.0114 164.453 90.0551 165.429C90.0837 165.866 90.0328 166.305 89.905 166.724C89.3546 168.57 87.7723 173.949 87.1156 176.915C86.3213 180.53 79.5604 191.396 79.5604 191.396C79.5604 191.396 73.6063 197.746 70.5667 201.055C69.0344 202.719 64.4397 213.597 62.0693 220.272" stroke="#263238" stroke-miterlimit="10"/>
<path d="M60.3284 157.428C60.4946 158.05 60.4997 158.703 60.3432 159.327C60.1867 159.951 59.8738 160.525 59.4341 160.994" fill="white"/>
<path d="M60.3284 157.428C60.4946 158.05 60.4997 158.703 60.3432 159.327C60.1867 159.951 59.8738 160.525 59.4341 160.994" stroke="#263238" stroke-miterlimit="10"/>
<path d="M50.2402 166.174C51.0971 164.841 51.9352 163.015 51.7037 161.451C51.2534 158.379 49.8274 154.845 50.4842 151.804C50.8844 149.865 51.291 147.92 51.6912 145.98" fill="white"/>
<path d="M50.2402 166.174C51.0971 164.841 51.9352 163.015 51.7037 161.451C51.2534 158.379 49.8274 154.845 50.4842 151.804C50.8844 149.865 51.291 147.92 51.6912 145.98" stroke="#263238" stroke-miterlimit="10"/>
<path d="M75.1763 137.16C76.2012 136.89 77.2785 136.89 78.3034 137.16C78.3034 136.872 78.3034 136.585 78.3034 136.291" stroke="#263238" stroke-miterlimit="10"/>
<path d="M66.9829 133.25C67.2843 133.458 67.637 133.579 68.0025 133.599C68.3679 133.62 68.732 133.54 69.0549 133.367C69.3778 133.195 69.647 132.937 69.8331 132.622C70.0193 132.306 70.1151 131.946 70.1101 131.58" stroke="#263238" stroke-miterlimit="10"/>
<path d="M89.5676 154.97C88.703 155.192 87.9431 155.71 87.4191 156.433C86.895 157.155 86.6396 158.039 86.6969 158.93L88.2292 159.386" stroke="#263238" stroke-miterlimit="10"/>
<path d="M69.4412 155.733C69.51 156.784 69.3787 159.292 69.4412 160.337V155.733Z" fill="white"/>
<path d="M69.4412 155.733C69.51 156.784 69.3787 159.292 69.4412 160.337" stroke="#263238" stroke-miterlimit="10"/>
<path d="M70.592 157.184C70.4669 158.907 70.3397 160.627 70.2104 162.345C70.2104 162.126 70.2104 161.907 70.2104 161.688" fill="white"/>
<path d="M70.592 157.184C70.4669 158.907 70.3397 160.627 70.2104 162.345C70.2104 162.126 70.2104 161.907 70.2104 161.688" stroke="#263238" stroke-miterlimit="10"/>
<path d="M80.1172 171.685C80.5712 173.586 80.3638 175.585 79.5293 177.352L80.1172 171.685Z" fill="white"/>
<path d="M80.1172 171.685C80.5712 173.586 80.3638 175.585 79.5293 177.352" stroke="#263238" stroke-miterlimit="10"/>
<path d="M64.2811 162.671C62.9177 164.166 63.1178 167.75 64.081 169.727" stroke="#263238" stroke-miterlimit="10"/>
<path d="M74.3569 165.135C74.3647 166.816 73.7726 168.444 72.687 169.727" stroke="#263238" stroke-miterlimit="10"/>
<path d="M54.3494 163.384C54.1228 164.908 54.4537 166.463 55.2813 167.763" stroke="#263238" stroke-miterlimit="10"/>
<path d="M48.5453 168.057C48.4855 169.246 48.8245 170.422 49.5085 171.397" stroke="#263238" stroke-miterlimit="10"/>
<path d="M56.5005 139.212C56.8597 139.048 57.2594 138.995 57.6491 139.058C58.0388 139.121 58.4008 139.299 58.6895 139.569L59.4775 138.543" stroke="#263238" stroke-miterlimit="10"/>
<path d="M62.918 143.81C63.4454 143.494 64.0684 143.376 64.6749 143.478C65.2814 143.58 65.8316 143.895 66.2265 144.367" stroke="#263238" stroke-miterlimit="10"/>
<path d="M72.937 146.938C73.499 146.687 74.1095 146.564 74.7248 146.576C75.34 146.589 75.9448 146.738 76.4957 147.013" stroke="#263238" stroke-miterlimit="10"/>
<path d="M50.6406 152.186C50.9736 151.629 51.4595 151.18 52.0405 150.892C52.6216 150.603 53.2732 150.488 53.9179 150.56" stroke="#263238" stroke-miterlimit="10"/>
<path d="M46.4443 158.166C46.4645 157.762 46.6225 157.376 46.8922 157.073C47.1618 156.77 47.5268 156.569 47.9266 156.502" stroke="#263238" stroke-miterlimit="10"/>
<path d="M210.833 8.45671L1 9.4451L4.17094 4.69082C4.91953 3.55979 5.93574 2.63113 7.12935 1.98727C8.32297 1.34342 9.65705 1.00429 11.0132 1H200.869C202.098 0.999117 203.311 1.27406 204.42 1.80457C205.528 2.33508 206.504 3.10762 207.274 4.06526L210.833 8.45671Z" fill="white" stroke="#263238" stroke-linecap="round" stroke-linejoin="round"/>
<path d="M109.562 39.9163H98.067C86.271 39.9163 76.7085 49.4808 76.7085 61.2792V72.7771C76.7085 84.5755 86.271 94.14 98.067 94.14H109.562C121.358 94.14 130.921 84.5755 130.921 72.7771V61.2792C130.921 49.4808 121.358 39.9163 109.562 39.9163Z" fill="#757575" stroke="#263238" stroke-linecap="round" stroke-linejoin="round"/>
<path d="M86.5591 71.6135V79.3205C86.5591 80.4818 87.0203 81.5956 87.8414 82.4168C88.6624 83.2381 89.776 83.6994 90.9371 83.6994H117.374C118.53 83.6994 119.639 83.2424 120.459 82.4279C121.279 81.6135 121.744 80.5077 121.752 79.3517C121.79 75.8799 121.971 71.6135 121.971 71.6135H86.5591Z" fill="#999999" stroke="#263238" stroke-linecap="round" stroke-linejoin="round"/>
<path d="M183.314 74.1846H28.7067C27.9115 74.1865 27.1342 73.9487 26.476 73.5024C25.8179 73.0561 25.3093 72.4219 25.0166 71.6824L1.1689 10.446C1.0242 10.0758 0.972129 9.67589 1.01721 9.28097C1.0623 8.88605 1.20317 8.50813 1.42757 8.18008C1.65198 7.85203 1.95312 7.5838 2.30481 7.3987C2.65649 7.21361 3.04807 7.11726 3.44547 7.11805H208.587C208.982 7.12232 209.37 7.22236 209.717 7.40959C210.065 7.59681 210.362 7.86561 210.583 8.19292C210.804 8.52022 210.942 8.89625 210.985 9.2887C211.029 9.68115 210.976 10.0783 210.833 10.446L186.985 71.6636C186.696 72.4037 186.192 73.0398 185.537 73.4894C184.882 73.939 184.108 74.1812 183.314 74.1846Z" fill="white" stroke="#263238" stroke-linecap="round" stroke-linejoin="round"/>
<path d="M184.464 68.8485H27.1868L5.54688 10.9965H206.004L184.464 68.8485Z" fill="white"/>
<path d="M121.79 74.1034H86.728V76.5055H121.79V74.1034Z" fill="#263238"/>
<path d="M161.492 66.3713H50.428C49.8026 66.3713 49.2397 66.0961 49.1271 65.7457L33.3287 15.5443C33.1536 14.9813 33.6477 14.5247 34.4357 14.5247H177.485C178.273 14.5247 178.767 14.9813 178.585 15.5443L162.793 65.7457C162.674 66.0898 162.099 66.3713 161.492 66.3713Z" fill="#38BFF2"/>
<path d="M160.379 65.2265H51.5537C51.3496 65.2279 51.1507 65.1627 50.987 65.0407C50.8234 64.9188 50.7039 64.7468 50.6468 64.5509L37.7879 22.3504C37.7401 22.2066 37.7273 22.0534 37.7506 21.9037C37.7739 21.7539 37.8327 21.6119 37.9221 21.4895C38.0114 21.367 38.1288 21.2678 38.2643 21.1999C38.3998 21.132 38.5495 21.0975 38.7011 21.0993H173.219C173.371 21.0975 173.52 21.132 173.656 21.1999C173.791 21.2678 173.909 21.367 173.998 21.4895C174.087 21.6119 174.146 21.7539 174.169 21.9037C174.193 22.0534 174.18 22.2066 174.132 22.3504L161.286 64.5509C161.228 64.7463 161.108 64.9177 160.945 65.0395C160.781 65.1612 160.583 65.2269 160.379 65.2265Z" fill="#263238"/>
<path d="M66.664 32.0717H45.7934C45.2743 32.0717 44.9365 32.3469 45.0366 32.6972C45.1375 32.8988 45.296 33.0658 45.492 33.1772C45.688 33.2886 45.9126 33.3392 46.1374 33.3228H66.8892C67.4021 33.3228 67.7648 33.0475 67.7085 32.6972C67.6522 32.3469 67.1769 32.0717 66.664 32.0717Z" fill="white"/>
<path d="M67.3581 35.8813H49.6083C49.1017 35.8813 48.7702 36.1503 48.8578 36.5069C48.9533 36.706 49.1062 36.8719 49.2968 36.9834C49.4874 37.0948 49.7069 37.1468 49.9273 37.1325H67.6082C68.1148 37.1325 68.4713 36.8635 68.415 36.5069C68.3587 36.1503 67.8647 35.8813 67.3581 35.8813Z" fill="white"/>
<path opacity="0.5" d="M68.0337 39.5597H47.8948C47.3945 39.5597 47.0692 39.8162 47.1568 40.1352C47.2574 40.3262 47.4117 40.4837 47.6006 40.5882C47.7895 40.6926 48.0048 40.7396 48.22 40.7232H68.2339C68.728 40.7232 69.0845 40.4668 69.0282 40.1477C68.9719 39.8287 68.5341 39.5597 68.0337 39.5597Z" fill="white"/>
<path d="M68.6841 43.1129H56.8571C56.3693 43.1129 56.0316 43.3631 56.1066 43.6697C56.1817 43.9762 56.6382 44.2264 57.1261 44.2264H68.8905C69.3783 44.2264 69.7285 43.9762 69.6723 43.6697C69.616 43.3631 69.1782 43.1129 68.6841 43.1129Z" fill="white"/>
<path d="M69.3162 46.541H49.8527C49.3774 46.541 49.0522 46.785 49.1397 47.079C49.2273 47.373 49.6776 47.617 50.1592 47.617H69.5476C70.0229 47.617 70.3669 47.3793 70.3169 47.079C70.2668 46.7787 69.7978 46.541 69.3162 46.541Z" fill="white"/>
<path d="M69.9225 49.8628H54.2116C53.7363 49.8628 53.4173 50.0943 53.4924 50.382C53.5674 50.6698 54.0115 50.9012 54.4806 50.9012H70.1164C70.5854 50.9012 70.9232 50.6698 70.8731 50.382C70.8231 50.0943 70.3978 49.8628 69.9225 49.8628Z" fill="white"/>
<path d="M70.5107 53.0719H55.0562C54.5872 53.0719 54.2744 53.2971 54.3495 53.5724C54.4245 53.8476 54.8561 54.0791 55.3189 54.0791H70.6983C71.1611 54.0791 71.4926 53.8539 71.4425 53.5724C71.3925 53.2908 70.9797 53.0719 70.5107 53.0719Z" fill="white"/>
<path d="M71.0798 56.1747H54.1931C53.7366 56.1747 53.4239 56.3936 53.4989 56.6626C53.574 56.9316 53.9993 57.1506 54.4558 57.1506H71.2362C71.6927 57.1506 72.0242 56.9316 71.9742 56.6626C71.9242 56.3936 71.5426 56.1747 71.0798 56.1747Z" fill="white"/>
<path opacity="0.5" d="M71.636 59.1836H60.7285C60.2782 59.1836 59.9654 59.3963 60.028 59.659C60.0905 59.9218 60.5096 60.1282 60.9536 60.1282H71.7924C72.2427 60.1282 72.5679 59.9155 72.5241 59.659C72.4803 59.4025 72.0863 59.1836 71.636 59.1836Z" fill="white"/>
<path opacity="0.5" d="M65.9389 28.1182H50.3844C49.859 28.1182 49.5088 28.406 49.6026 28.7438C49.7033 28.9469 49.8626 29.1151 50.06 29.2267C50.2574 29.3382 50.4837 29.3879 50.7096 29.3693H66.1703C66.6957 29.3693 67.0647 29.0816 67.0021 28.7438C66.9151 28.5395 66.7648 28.3685 66.5735 28.2559C66.3821 28.1433 66.1597 28.0951 65.9389 28.1182Z" fill="white"/>
<path d="M65.1819 24.0208H43.5294C42.9978 24.0208 42.6476 24.3148 42.7539 24.6838C42.8586 24.8959 43.0238 25.0721 43.2287 25.1901C43.4335 25.3081 43.6688 25.3627 43.9047 25.3469H65.4321C65.9574 25.3469 66.3389 25.0529 66.2701 24.6838C66.2013 24.3148 65.7323 24.0208 65.1819 24.0208Z" fill="white"/>
<path d="M72.168 62.0988H54.2243C53.7803 62.0988 53.4801 62.3052 53.5489 62.5554C53.6177 62.8056 54.0367 63.0121 54.4808 63.0121H72.3369C72.7747 63.0121 73.0999 62.8056 73.0561 62.5554C73.0123 62.3052 72.612 62.0988 72.168 62.0988Z" fill="white"/>
<path opacity="0.5" d="M73.9941 33.4604H78.0407L77.8405 31.9153H73.7627L73.9941 33.4604Z" fill="white"/>
<path opacity="0.5" d="M74.5572 37.2202H78.5349L78.3411 35.7313H74.332L74.5572 37.2202Z" fill="white"/>
<path opacity="0.5" d="M75.1013 40.8547H79.0103L78.8226 39.4159H74.8887L75.1013 40.8547Z" fill="white"/>
<path opacity="0.5" d="M75.6331 44.364H79.4732L79.2856 42.969H75.4204L75.6331 44.364Z" fill="white"/>
<path opacity="0.5" d="M76.1396 47.7483H79.9172L79.7358 46.4095H75.9395L76.1396 47.7483Z" fill="white"/>
<path opacity="0.5" d="M76.6337 51.0262H80.3425L80.1737 49.7313H76.4336L76.6337 51.0262Z" fill="white"/>
<path opacity="0.5" d="M77.109 54.2041H80.7615L80.5989 52.9404H76.9214L77.109 54.2041Z" fill="white"/>
<path opacity="0.5" d="M77.5652 57.2694H81.1614L81.005 56.0558H77.3838L77.5652 57.2694Z" fill="white"/>
<path opacity="0.5" d="M78.0155 60.247H81.5554L81.399 59.0647H77.8403L78.0155 60.247Z" fill="white"/>
<path opacity="0.5" d="M73.4061 29.5631H77.5277L77.3213 27.9554H73.1685L73.4061 29.5631Z" fill="white"/>
<path opacity="0.5" d="M72.7995 25.5158H76.9961L76.7835 23.8518H72.5493L72.7995 25.5158Z" fill="white"/>
<path opacity="0.5" d="M78.4472 63.1246H81.9308L81.7807 61.9799H78.2783L78.4472 63.1246Z" fill="white"/>
<path d="M99.7808 56.6626C99.7808 56.3936 100.131 56.1747 100.588 56.1747H160.516C160.973 56.1747 161.286 56.3936 161.204 56.6626C161.106 56.8265 160.964 56.9593 160.793 57.0456C160.623 57.1319 160.431 57.1683 160.241 57.1506H100.619C100.162 57.1506 99.787 56.9316 99.7808 56.6626Z" fill="white"/>
<path d="M161.123 54.0791H127.938C127.475 54.0791 127.125 53.8539 127.156 53.5724C127.188 53.2908 127.588 53.0719 128.057 53.0719H161.424C161.886 53.0719 162.199 53.2971 162.118 53.5724C162.019 53.7444 161.873 53.8839 161.696 53.9739C161.52 54.0639 161.321 54.1004 161.123 54.0791Z" fill="white"/>
<path opacity="0.5" d="M120.063 54.0791H109.744C109.281 54.0791 108.905 53.8539 108.912 53.5724C108.918 53.2908 109.293 53.0719 109.762 53.0719H120.144C120.607 53.0719 120.97 53.2971 120.945 53.5724C120.92 53.8476 120.526 54.0791 120.063 54.0791Z" fill="white"/>
<path d="M141.603 50.9012H94.7961C94.327 50.9012 93.933 50.6698 93.9143 50.382C93.8955 50.0943 94.2645 49.8628 94.7398 49.8628H141.797C142.266 49.8628 142.61 50.0943 142.554 50.382C142.498 50.6698 142.079 50.9012 141.603 50.9012Z" fill="white"/>
<path opacity="0.5" d="M85.0144 49.8628H88.3479C88.817 49.8628 89.2235 50.0943 89.2486 50.382C89.2736 50.6698 88.9108 50.9012 88.4417 50.9012H85.1207C84.6516 50.9012 84.2451 50.6698 84.2138 50.382C84.1826 50.0943 84.539 49.8628 85.0144 49.8628Z" fill="white"/>
<path d="M148.377 47.079C148.314 47.3793 147.876 47.617 147.395 47.617H103.289C102.808 47.617 102.42 47.3793 102.414 47.079C102.407 46.7787 102.795 46.541 103.27 46.541H147.62C148.101 46.541 148.439 46.785 148.377 47.079Z" fill="white"/>
<path d="M84.658 46.541H97.1666C97.6482 46.541 98.0485 46.785 98.061 47.079C98.0735 47.373 97.692 47.617 97.2167 47.617H84.7706C84.2952 47.617 83.8824 47.3793 83.8449 47.079C83.8074 46.7787 84.1764 46.541 84.658 46.541Z" fill="white"/>
<path d="M84.289 43.1129H132.41C132.898 43.1129 133.26 43.3631 133.217 43.6697C133.173 43.9762 132.747 44.2264 132.26 44.2264H84.4078C83.9262 44.2264 83.5009 43.9762 83.4697 43.6697C83.4384 43.3631 83.8011 43.1129 84.289 43.1129Z" fill="white"/>
<path d="M115.529 40.7233C115.035 40.7233 114.647 40.4668 114.66 40.1478C114.672 39.8287 115.085 39.5723 115.586 39.5723H140.972C141.472 39.5723 141.829 39.8287 141.772 40.1478C141.716 40.4668 141.272 40.7233 140.778 40.7233H115.529Z" fill="white"/>
<path d="M83.9134 39.5597H105.885C106.385 39.5597 106.785 39.8162 106.785 40.1352C106.785 40.4542 106.385 40.7232 105.885 40.7232H84.0385C83.5382 40.7232 83.1129 40.4668 83.0753 40.1477C83.0378 39.8287 83.4131 39.5597 83.9134 39.5597Z" fill="white"/>
<path d="M166.001 37.0762H105.516C105.015 37.0762 104.603 36.8072 104.603 36.4506C104.603 36.0941 105.009 35.8251 105.516 35.8251H166.339C166.846 35.8251 167.177 36.0941 167.083 36.4506C166.984 36.6496 166.829 36.8151 166.636 36.9263C166.444 37.0375 166.223 37.0897 166.001 37.0762Z" fill="white"/>
<path d="M167.052 33.3041H113.891C113.378 33.3041 112.971 33.0289 112.984 32.6785C112.996 32.3282 113.421 32.053 113.941 32.053H167.465C167.978 32.053 168.316 32.3282 168.216 32.6785C168.109 32.8897 167.941 33.0629 167.733 33.1749C167.524 33.2868 167.287 33.3319 167.052 33.3041Z" fill="white"/>
<path opacity="0.5" d="M168.203 29.4006H157.046C156.52 29.4006 156.164 29.1128 156.245 28.775C156.342 28.5707 156.5 28.4012 156.697 28.2893C156.894 28.1775 157.12 28.1287 157.346 28.1495H168.553C169.079 28.1495 169.423 28.4372 169.316 28.775C169.211 28.9755 169.05 29.1412 168.852 29.2521C168.655 29.3631 168.429 29.4147 168.203 29.4006Z" fill="white"/>
<path d="M149.259 29.4005H108.337C107.818 29.4005 107.392 29.1128 107.399 28.775C107.405 28.4372 107.824 28.1494 108.349 28.1494H149.54C150.065 28.1494 150.434 28.4372 150.359 28.775C150.266 28.9823 150.109 29.1545 149.911 29.2669C149.713 29.3793 149.485 29.4261 149.259 29.4005Z" fill="white"/>
<path d="M86.0022 59.1836H123.797C124.247 59.1836 124.591 59.3963 124.56 59.659C124.529 59.9218 124.154 60.1282 123.703 60.1282H86.1086C85.6583 60.1282 85.2705 59.9155 85.2455 59.659C85.2205 59.4025 85.5519 59.1836 86.0022 59.1836Z" fill="white"/>
<path d="M86.3153 62.0988H144.38C144.818 62.0988 145.137 62.3052 145.081 62.5554C145.025 62.8056 144.631 63.0121 144.187 63.0121H86.4154C85.9713 63.0121 85.5898 62.8056 85.5648 62.5554C85.5398 62.3052 85.8713 62.0988 86.3153 62.0988Z" fill="white"/>
<path d="M147.226 25.3469H117.643C117.111 25.3469 116.699 25.0529 116.717 24.6838C116.736 24.3148 117.18 24.0208 117.718 24.0208H147.476C148.014 24.0208 148.389 24.3148 148.32 24.6838C148.232 24.8964 148.079 25.0753 147.882 25.1946C147.685 25.3138 147.455 25.3672 147.226 25.3469Z" fill="white"/>
<path opacity="0.5" d="M109.287 25.3469H82.3935C81.8619 25.3469 81.3991 25.0529 81.3553 24.6838C81.3115 24.3148 81.7118 24.0208 82.2497 24.0208H109.3C109.831 24.0208 110.263 24.3148 110.257 24.6838C110.25 25.0529 109.819 25.3469 109.287 25.3469Z" fill="white"/>
<path opacity="0.5" d="M132.178 59.1836C132.628 59.1836 132.966 59.3963 132.929 59.659C132.891 59.9218 132.497 60.1282 132.047 60.1282H129.126C128.682 60.1282 128.344 59.9155 128.376 59.659C128.407 59.4025 128.795 59.1836 129.245 59.1836H132.178Z" fill="white"/>
<path opacity="0.5" d="M96.3345 56.6626C96.3345 56.9316 95.9905 57.1506 95.5339 57.1506H91.5562C91.0996 57.1506 90.7119 56.9316 90.6931 56.6626C90.6743 56.3936 91.0246 56.1747 91.4811 56.1747H95.4777C95.9405 56.1747 96.322 56.3936 96.3345 56.6626Z" fill="white"/>
<path opacity="0.5" d="M144.336 43.6697C144.28 43.9762 143.842 44.2264 143.355 44.2264H138.701C138.213 44.2264 137.863 43.9762 137.907 43.6697C137.951 43.3631 138.395 43.1129 138.883 43.1129H143.561C144.049 43.1129 144.399 43.3631 144.336 43.6697Z" fill="white"/>
<path opacity="0.5" d="M158.853 46.541C159.335 46.541 159.66 46.785 159.579 47.079C159.482 47.2578 159.335 47.4042 159.156 47.4999C158.977 47.5956 158.774 47.6363 158.572 47.617H154.863C154.381 47.617 154.056 47.3793 154.125 47.079C154.219 46.9001 154.365 46.7535 154.543 46.6577C154.722 46.5618 154.924 46.5212 155.126 46.541H158.853Z" fill="white"/>
<path opacity="0.5" d="M98.1922 37.0762C97.6918 37.0762 97.2728 36.8072 97.254 36.4506C97.2353 36.0941 97.6418 35.8251 98.1484 35.8251H102.095C102.601 35.8251 103.014 36.0941 103.021 36.4506C103.027 36.8072 102.62 37.0762 102.12 37.0762H98.1922Z" fill="white"/>
<path d="M44.4676 17.8151C44.5553 18.0243 44.5883 18.2525 44.5632 18.4779C44.5382 18.7034 44.456 18.9187 44.3245 19.1036C44.193 19.2884 44.0164 19.4365 43.8116 19.534C43.6068 19.6315 43.3805 19.675 43.1542 19.6606C42.6077 19.6287 42.0827 19.4368 41.6445 19.1086C41.2063 18.7805 40.8744 18.3306 40.69 17.8151C40.5975 17.6055 40.5604 17.3755 40.5823 17.1474C40.6041 16.9193 40.6841 16.7006 40.8147 16.5122C40.9452 16.3239 41.1219 16.1722 41.3279 16.0718C41.5338 15.9713 41.7621 15.9254 41.9909 15.9385C42.5442 15.967 43.0761 16.1612 43.5178 16.4958C43.9594 16.8305 44.2903 17.2901 44.4676 17.8151Z" fill="white"/>
<path d="M49.5337 17.8464C49.6124 18.0606 49.6363 18.2911 49.6032 18.5169C49.5702 18.7427 49.4813 18.9566 49.3446 19.1393C49.2079 19.3221 49.0278 19.4677 48.8205 19.5631C48.6132 19.6585 48.3854 19.7006 48.1578 19.6856C47.6183 19.6587 47.0997 19.4684 46.6707 19.1399C46.2418 18.8115 45.9229 18.3603 45.7561 17.8464C45.6734 17.6312 45.6458 17.3987 45.6758 17.1701C45.7059 16.9415 45.7926 16.7241 45.9281 16.5376C46.0636 16.351 46.2436 16.2014 46.4517 16.1022C46.6598 16.003 46.8894 15.9575 47.1196 15.9697C47.6664 15.995 48.1921 16.189 48.6243 16.525C49.0565 16.861 49.3742 17.3226 49.5337 17.8464Z" fill="white"/>
<path d="M54.6809 17.8151C54.751 18.0363 54.7659 18.2713 54.7242 18.4996C54.6825 18.7278 54.5855 18.9424 54.4417 19.1245C54.2979 19.3066 54.1117 19.4506 53.8994 19.5441C53.687 19.6375 53.455 19.6775 53.2237 19.6605C52.6891 19.6362 52.1755 19.4451 51.7549 19.1142C51.3344 18.7833 51.0278 18.329 50.8783 17.8151C50.8046 17.5948 50.7859 17.3598 50.8237 17.1305C50.8616 16.9013 50.9548 16.6848 51.0954 16.4998C51.2359 16.3148 51.4195 16.167 51.6302 16.0691C51.8409 15.9713 52.0723 15.9264 52.3043 15.9384C52.8494 15.9545 53.3748 16.1457 53.8029 16.4837C54.2309 16.8217 54.5388 17.2885 54.6809 17.8151Z" fill="white"/>
<path d="M50.2775 93.9586H37.0871C36.2577 93.9586 35.4623 94.2882 34.8759 94.8747C34.2894 95.4613 33.96 96.2569 33.96 97.0864V103.511C33.96 104.341 34.2894 105.136 34.8759 105.723C35.4623 106.309 36.2577 106.639 37.0871 106.639H40.5333L43.1476 112.563L46.8314 106.639H50.2775C51.1069 106.639 51.9023 106.309 52.4887 105.723C53.0752 105.136 53.4046 104.341 53.4046 103.511V97.0614C53.398 96.2362 53.0657 95.447 52.4799 94.8659C51.8942 94.2847 51.1025 93.9586 50.2775 93.9586Z" fill="white" stroke="#263238" stroke-linecap="round" stroke-linejoin="round"/>
<path d="M41.8467 97.6495C41.8467 97.4836 41.9126 97.3245 42.0299 97.2072C42.1472 97.0898 42.3062 97.0239 42.4721 97.0239C42.6307 97.0235 42.7835 97.0834 42.8996 97.1914C43.0157 97.2994 43.0864 97.4475 43.0975 97.6057C43.0975 97.7716 43.0317 97.9307 42.9144 98.048C42.7971 98.1654 42.638 98.2313 42.4721 98.2313C42.3136 98.2316 42.1608 98.1718 42.0447 98.0638C41.9285 97.9558 41.8578 97.8077 41.8467 97.6495ZM41.9843 98.9569H42.9912V103.248H41.9655L41.9843 98.9569Z" fill="#263238"/>
<path d="M45.412 98.7192V98.9757H46.5941V99.7827H45.4495V103.236H44.4676V99.7827H43.7358V98.9757H44.4676V98.7005C44.4516 98.4973 44.4806 98.2932 44.5527 98.1026C44.6248 97.912 44.7381 97.7397 44.8845 97.5981C45.0309 97.4564 45.2068 97.3489 45.3997 97.2831C45.5925 97.2174 45.7975 97.1951 45.9999 97.2179C46.3206 97.2017 46.6387 97.2823 46.913 97.4493L46.6316 98.2063C46.4677 98.0935 46.2738 98.0325 46.075 98.0311C45.6309 98.0311 45.412 98.2751 45.412 98.7192Z" fill="#263238"/>
<path d="M90.4429 94.8594H77.2463C76.4169 94.8594 75.6215 95.1889 75.0351 95.7755C74.4486 96.3621 74.1191 97.1576 74.1191 97.9872V104.405C74.1191 105.235 74.4486 106.031 75.0351 106.617C75.6215 107.204 76.4169 107.533 77.2463 107.533H80.6987L83.3067 113.457L86.9905 107.533H90.4429C91.2723 107.533 92.0677 107.204 92.6542 106.617C93.2406 106.031 93.5701 105.235 93.5701 104.405V97.9622C93.5635 97.137 93.2311 96.3478 92.6454 95.7666C92.0596 95.1855 91.268 94.8593 90.4429 94.8594Z" fill="white" stroke="#263238" stroke-linecap="round" stroke-linejoin="round"/>
<path d="M80.0236 102.31H76.6525C76.7186 102.623 76.897 102.901 77.154 103.091C77.411 103.281 77.7288 103.37 78.0473 103.342C78.2632 103.35 78.4784 103.312 78.6789 103.231C78.8793 103.151 79.0605 103.028 79.2106 102.873L79.7484 103.499C79.4236 103.821 79.0134 104.045 78.566 104.143C78.1186 104.241 77.6525 104.209 77.2224 104.052C76.7924 103.894 76.4162 103.617 76.138 103.253C75.8598 102.889 75.6912 102.454 75.6518 101.997C75.6431 101.705 75.6945 101.414 75.8029 101.142C75.9113 100.871 76.0743 100.624 76.282 100.418C76.4896 100.212 76.7374 100.051 77.0098 99.9452C77.2823 99.8391 77.5737 99.7902 77.8659 99.8014C78.1584 99.7894 78.4501 99.8391 78.7222 99.9471C78.9943 100.055 79.2406 100.219 79.4453 100.429C79.6499 100.638 79.8082 100.888 79.91 101.163C80.0118 101.437 80.0548 101.73 80.0361 102.022C80.0361 102.091 80.0299 102.216 80.0236 102.31ZM76.6463 101.647H79.0792C79.0492 101.35 78.9068 101.076 78.6812 100.88C78.4557 100.685 78.164 100.583 77.8659 100.596C77.5675 100.585 77.2758 100.687 77.0496 100.882C76.8233 101.077 76.6792 101.35 76.6463 101.647Z" fill="#263238"/>
<path d="M80.9993 98.1749H81.9938V104.137H80.9868L80.9993 98.1749Z" fill="#263238"/>
<path d="M82.8315 103.711L83.2131 102.948C83.6631 103.224 84.1801 103.371 84.7078 103.373C85.3333 103.373 85.6085 103.198 85.6085 102.898C85.6085 102.078 82.9566 102.848 82.9566 101.14C82.9566 100.327 83.6884 99.7951 84.8329 99.7951C85.3907 99.7862 85.9423 99.9129 86.4403 100.164L86.0525 100.927C85.6732 100.707 85.2401 100.597 84.8017 100.608C84.1762 100.608 83.901 100.809 83.901 101.09C83.901 101.96 86.5529 101.184 86.5529 102.867C86.5529 103.667 85.8149 104.193 84.6078 104.193C83.9829 104.197 83.3688 104.03 82.8315 103.711Z" fill="#263238"/>
<path d="M91.4753 102.31H88.1042C88.1703 102.623 88.3487 102.901 88.6057 103.091C88.8627 103.281 89.1805 103.37 89.4989 103.342C89.7149 103.35 89.9301 103.312 90.1305 103.231C90.331 103.151 90.5121 103.028 90.6622 102.873L91.2001 103.499C90.8753 103.821 90.4651 104.045 90.0176 104.143C89.5702 104.241 89.1042 104.209 88.6741 104.052C88.244 103.894 87.8679 103.617 87.5897 103.253C87.3115 102.889 87.1428 102.454 87.1035 101.997C87.0947 101.705 87.1461 101.414 87.2545 101.142C87.3629 100.871 87.526 100.624 87.7336 100.418C87.9413 100.212 88.189 100.051 88.4615 99.9452C88.734 99.8391 89.0254 99.7902 89.3175 99.8014C89.61 99.7894 89.9018 99.8391 90.1739 99.9471C90.446 100.055 90.6923 100.219 90.8969 100.429C91.1016 100.638 91.2599 100.888 91.3617 101.163C91.4635 101.437 91.5064 101.73 91.4878 102.022C91.4878 102.091 91.4815 102.216 91.4753 102.31ZM88.0979 101.647H90.5309C90.5008 101.35 90.3585 101.076 90.1329 100.88C89.9073 100.685 89.6157 100.583 89.3175 100.596C89.0191 100.585 88.7275 100.687 88.5012 100.882C88.275 101.077 88.1309 101.35 88.0979 101.647Z" fill="#263238"/>
<path d="M129.382 94.4779H116.186C115.356 94.4779 114.561 94.8074 113.975 95.394C113.388 95.9806 113.059 96.7762 113.059 97.6057V104.03C113.059 104.86 113.388 105.655 113.975 106.242C114.561 106.829 115.356 107.158 116.186 107.158H119.638L122.246 113.082L125.93 107.158H129.382C130.212 107.158 131.007 106.829 131.594 106.242C132.18 105.655 132.51 104.86 132.51 104.03V97.5807C132.503 96.7555 132.171 95.9663 131.585 95.3852C130.999 94.804 130.207 94.4779 129.382 94.4779Z" fill="white" stroke="#263238" stroke-linecap="round" stroke-linejoin="round"/>
<path d="M119.213 99.2384V99.5261H120.395V100.333H119.244V103.786H118.269V100.333H117.562V99.5261H118.269V99.2509C118.253 99.0477 118.282 98.8436 118.354 98.653C118.426 98.4624 118.539 98.2901 118.686 98.1485C118.832 98.0068 119.008 97.8993 119.201 97.8335C119.394 97.7678 119.599 97.7455 119.801 97.7683C120.12 97.7526 120.436 97.8333 120.708 97.9998L120.426 98.7567C120.266 98.6411 120.074 98.5778 119.876 98.5753C119.432 98.544 119.213 98.7817 119.213 99.2384Z" fill="#263238"/>
<path d="M120.652 101.609C120.634 101.153 120.754 100.702 120.994 100.314C121.235 99.9257 121.587 99.6186 122.004 99.432C122.421 99.2454 122.884 99.1877 123.333 99.2664C123.783 99.3451 124.199 99.5566 124.528 99.8737C124.857 100.191 125.083 100.599 125.178 101.046C125.273 101.492 125.232 101.957 125.061 102.381C124.889 102.804 124.595 103.167 124.217 103.422C123.838 103.676 123.391 103.812 122.934 103.811C122.637 103.829 122.339 103.784 122.06 103.681C121.78 103.577 121.525 103.417 121.311 103.21C121.097 103.003 120.927 102.754 120.814 102.479C120.7 102.203 120.645 101.907 120.652 101.609ZM124.21 101.609C124.193 101.366 124.106 101.134 123.958 100.94C123.811 100.746 123.61 100.599 123.381 100.518C123.151 100.436 122.903 100.424 122.666 100.481C122.43 100.539 122.215 100.665 122.049 100.843C121.882 101.021 121.772 101.243 121.73 101.483C121.688 101.723 121.718 101.97 121.814 102.194C121.911 102.417 122.071 102.608 122.274 102.742C122.478 102.876 122.716 102.947 122.959 102.948C123.131 102.948 123.301 102.913 123.459 102.845C123.617 102.777 123.759 102.677 123.876 102.551C123.994 102.426 124.084 102.277 124.141 102.115C124.199 101.953 124.222 101.781 124.21 101.609Z" fill="#263238"/>
<path d="M128.663 99.4135V100.371C128.586 100.365 128.509 100.365 128.432 100.371C128.257 100.357 128.082 100.382 127.919 100.445C127.756 100.508 127.609 100.607 127.489 100.734C127.369 100.861 127.279 101.014 127.225 101.18C127.172 101.347 127.157 101.524 127.181 101.697V103.78H126.174V99.4635H127.131V100.089C127.306 99.8534 127.539 99.6672 127.808 99.5488C128.076 99.4304 128.371 99.3838 128.663 99.4135Z" fill="#263238"/>
<path d="M167.759 93.9586H154.544C153.714 93.9586 152.919 94.2882 152.332 94.8747C151.746 95.4613 151.417 96.2569 151.417 97.0864V103.511C151.417 104.341 151.746 105.136 152.332 105.723C152.919 106.309 153.714 106.639 154.544 106.639H157.996L160.604 112.563L164.288 106.639H167.74C168.57 106.639 169.365 106.309 169.952 105.723C170.538 105.136 170.867 104.341 170.867 103.511V97.0614C170.861 96.2394 170.531 95.4531 169.949 94.8725C169.368 94.2918 168.581 93.9635 167.759 93.9586Z" fill="white" stroke="#263238" stroke-linecap="round" stroke-linejoin="round"/>
<path d="M159.447 98.7317H163.15V99.5262H159.447V98.7317ZM159.447 100.677H163.15V101.484H159.447V100.677Z" fill="#263238"/>
<path d="M70.3917 86.5332H57.195C56.3657 86.5332 55.5703 86.8627 54.9838 87.4493C54.3973 88.0359 54.0679 88.8315 54.0679 89.661V96.0793C54.0679 96.9088 54.3973 97.7044 54.9838 98.291C55.5703 98.8776 56.3657 99.2071 57.195 99.2071H60.6474L63.2555 105.131L66.9393 99.2071H70.3917C71.221 99.2071 72.0164 98.8776 72.6029 98.291C73.1893 97.7044 73.5188 96.9088 73.5188 96.0793V89.636C73.5122 88.8108 73.1798 88.0216 72.5941 87.4405C72.0083 86.8593 71.2167 86.5332 70.3917 86.5332Z" fill="white" stroke="#263238" stroke-linecap="round" stroke-linejoin="round"/>
<path d="M60.6909 89.1981H62.6047V90.0051H61.6916V95.9167H62.6047V96.7236H60.6909V89.1981Z" fill="#263238"/>
<path d="M65.1069 96.7236V95.9167H66.0138V90.0051H65.1069V89.1981H66.9832V96.7049L65.1069 96.7236Z" fill="#263238"/>
<path d="M109.619 85.8763H96.4221C95.5927 85.8763 94.7973 86.2059 94.2108 86.7925C93.6244 87.379 93.2949 88.1746 93.2949 89.0042V95.3974C93.2949 96.227 93.6244 97.0225 94.2108 97.6091C94.7973 98.1957 95.5927 98.5252 96.4221 98.5252H99.8745L102.489 104.449L106.173 98.5252H109.619C110.448 98.5252 111.243 98.1957 111.83 97.6091C112.416 97.0225 112.746 96.227 112.746 95.3974V88.9791C112.739 88.1539 112.407 87.3648 111.821 86.7836C111.235 86.2024 110.444 85.8763 109.619 85.8763Z" fill="white" stroke="#263238" stroke-linecap="round" stroke-linejoin="round"/>
<path d="M100.337 92.2759C100.656 92.3822 100.813 92.6012 100.813 93.0953V94.628C100.798 94.7106 100.804 94.7953 100.828 94.8755C100.852 94.9558 100.895 95.0292 100.953 95.0899C101.01 95.1507 101.081 95.1971 101.16 95.2255C101.239 95.2539 101.324 95.2635 101.407 95.2535H101.576V96.0605H101.169C100.988 96.0875 100.803 96.0726 100.629 96.0169C100.455 95.9612 100.296 95.8662 100.164 95.7393C100.032 95.6123 99.9316 95.4568 99.8694 95.2848C99.8072 95.1127 99.7854 94.9287 99.8056 94.7468V93.0953C99.8056 92.8264 99.668 92.7075 99.4429 92.7075H99.1802V91.888H99.4429C99.668 91.888 99.8056 91.7691 99.8056 91.5002V89.8424C99.7852 89.6608 99.8069 89.4769 99.8691 89.305C99.9312 89.1332 100.032 88.978 100.164 88.8515C100.296 88.725 100.455 88.6306 100.63 88.5757C100.804 88.5209 100.988 88.5069 101.169 88.535H101.576V89.342H101.382C101.298 89.3306 101.213 89.3392 101.134 89.3671C101.054 89.3951 100.983 89.4415 100.924 89.5026C100.866 89.5637 100.824 89.6377 100.8 89.7186C100.776 89.7994 100.772 89.8847 100.788 89.9675V91.4939C100.813 91.9568 100.656 92.1758 100.337 92.2759Z" fill="#263238"/>
<path d="M106.467 91.8693V92.6888H106.191C105.972 92.6888 105.835 92.8076 105.835 93.0766V94.7281C105.854 94.9103 105.831 95.0944 105.768 95.2664C105.705 95.4384 105.604 95.5937 105.472 95.7205C105.34 95.8473 105.18 95.9421 105.006 95.9978C104.831 96.0535 104.646 96.0685 104.465 96.0418H104.059V95.2348H104.227C104.313 95.2489 104.4 95.2424 104.483 95.216C104.565 95.1895 104.64 95.1438 104.701 95.0826C104.762 95.0215 104.808 94.9467 104.834 94.8643C104.861 94.782 104.867 94.6946 104.853 94.6092V93.0766C104.853 92.5824 104.997 92.3635 105.316 92.2571C104.997 92.157 104.853 91.9381 104.853 91.4376V89.9113C104.868 89.8257 104.863 89.7376 104.837 89.6546C104.811 89.5716 104.766 89.4961 104.704 89.4346C104.643 89.3731 104.567 89.3274 104.484 89.3015C104.401 89.2755 104.313 89.2701 104.227 89.2857H104.059V88.5162H104.465C104.646 88.4884 104.831 88.5024 105.005 88.5573C105.18 88.6122 105.339 88.7064 105.472 88.8328C105.604 88.9591 105.706 89.1141 105.769 89.2859C105.832 89.4578 105.854 89.6417 105.835 89.8237V91.4814C105.835 91.7504 105.972 91.8693 106.191 91.8693H106.467Z" fill="#263238"/>
<path d="M148.433 84.5752H135.237C134.407 84.5752 133.612 84.9047 133.025 85.4913C132.439 86.0779 132.109 86.8735 132.109 87.703V94.1213C132.109 94.9508 132.439 95.7464 133.025 96.333C133.612 96.9196 134.407 97.2491 135.237 97.2491H138.683L141.297 103.173L144.981 97.2491H148.433C149.263 97.2491 150.058 96.9196 150.644 96.333C151.231 95.7464 151.56 94.9508 151.56 94.1213V87.678C151.554 86.8528 151.221 86.0636 150.636 85.4824C150.05 84.9013 149.258 84.5752 148.433 84.5752Z" fill="white" stroke="#263238" stroke-linecap="round" stroke-linejoin="round"/>
<path d="M141.31 89.3233C141.301 89.2312 141.311 89.1383 141.34 89.0505C141.369 88.9626 141.416 88.8819 141.479 88.8134C141.541 88.7449 141.617 88.6901 141.701 88.6526C141.786 88.6152 141.877 88.5958 141.97 88.5958C142.062 88.5958 142.154 88.6152 142.238 88.6526C142.323 88.6901 142.398 88.7449 142.461 88.8134C142.523 88.8819 142.57 88.9626 142.599 89.0505C142.628 89.1383 142.638 89.2312 142.629 89.3233C142.638 89.4153 142.628 89.5082 142.599 89.5961C142.57 89.6839 142.523 89.7646 142.461 89.8331C142.398 89.9016 142.323 89.9564 142.238 89.9939C142.154 90.0313 142.062 90.0507 141.97 90.0507C141.877 90.0507 141.786 90.0313 141.701 89.9939C141.617 89.9564 141.541 89.9016 141.479 89.8331C141.416 89.7646 141.369 89.6839 141.34 89.5961C141.311 89.5082 141.301 89.4153 141.31 89.3233ZM142.629 92.3885C142.612 92.6279 142.549 92.8617 142.442 93.0766L142.029 94.2151H141.404L141.729 92.964C141.613 92.9149 141.514 92.8319 141.446 92.7259C141.378 92.6198 141.344 92.4957 141.347 92.3697C141.347 92.1964 141.416 92.0301 141.539 91.9075C141.661 91.7849 141.828 91.716 142.001 91.716C142.174 91.716 142.34 91.7849 142.463 91.9075C142.586 92.0301 142.654 92.1964 142.654 92.3697L142.629 92.3885Z" fill="#263238"/>
<path d="M96.8474 196.826H110.038C110.867 196.826 111.663 196.497 112.249 195.91C112.835 195.324 113.165 194.528 113.165 193.698V187.299C113.157 186.475 112.824 185.687 112.238 185.107C111.652 184.528 110.862 184.202 110.038 184.202H106.592L105.585 178.278L100.294 184.202H96.8474C96.0234 184.202 95.2327 184.528 94.6471 185.107C94.0616 185.687 93.7285 186.475 93.7202 187.299V193.723C93.7268 194.549 94.0592 195.338 94.6449 195.919C95.2307 196.5 96.0223 196.826 96.8474 196.826Z" fill="white" stroke="#263238" stroke-linecap="round" stroke-linejoin="round"/>
<path d="M101.482 189.194L98.7112 190.233L101.482 191.271V192.109L97.7793 190.671V189.795L101.482 188.356V189.194Z" fill="#263238"/>
<path d="M104.409 186.273H105.304L102.633 193.849H101.757L104.409 186.273Z" fill="#263238"/>
<path d="M109.2 189.795V190.664L105.497 192.103V191.265L108.262 190.233L105.491 189.201V188.356L109.2 189.795Z" fill="#263238"/>
<path d="M12.9641 150.065H26.1544C26.9838 150.065 27.7792 149.736 28.3657 149.149C28.9521 148.563 29.2816 147.767 29.2816 146.938V140.544C29.2816 139.715 28.9521 138.919 28.3657 138.333C27.7792 137.746 26.9838 137.417 26.1544 137.417H22.7083L23.4588 131.492L16.4102 137.417H12.9641C12.1347 137.417 11.3393 137.746 10.7528 138.333C10.1664 138.919 9.83691 139.715 9.83691 140.544V146.963C9.84351 147.788 10.1759 148.577 10.7616 149.158C11.3474 149.739 12.139 150.065 12.9641 150.065Z" fill="white" stroke="#263238" stroke-linecap="round" stroke-linejoin="round"/>
<path d="M16.8735 145.993C16.8735 145.827 16.9394 145.668 17.0567 145.551C17.174 145.433 17.3331 145.367 17.499 145.367C17.6648 145.367 17.8239 145.433 17.9412 145.551C18.0585 145.668 18.1244 145.827 18.1244 145.993C18.1244 146.159 18.0585 146.318 17.9412 146.435C17.8239 146.553 17.6648 146.618 17.499 146.618C17.3331 146.618 17.174 146.553 17.0567 146.435C16.9394 146.318 16.8735 146.159 16.8735 145.993ZM16.9486 140.938H18.1369L17.9368 144.692H17.1237L16.9486 140.938Z" fill="#263238"/>
<path d="M19.1562 142.377H22.8588V143.184H19.1562V142.377ZM19.1562 144.323H22.8588V145.13H19.1562V144.323Z" fill="#263238"/>
</svg>
