<svg aria-hidden="true" style="position: absolute; width: 0; height: 0; overflow: hidden;" version="1.1"
     xmlns="http://www.w3.org/2000/svg" xmlns:xlink="http://www.w3.org/1999/xlink">
    <defs>
        <symbol id="icon-ad" viewBox="0 0 91 91">
            <path d="M89.593 44.7762C89.593 51.7491 83.9499 57.3921 76.9771 57.3921V32.1245C83.9501 32.1243 89.593 37.7854 89.593 44.7762Z"
                  fill="white"/>
            <path d="M73.7906 6.16992C72.0307 6.16992 70.604 7.5966 70.604 9.35652V80.1606C70.604 81.9205 72.0307 83.3472 73.7906 83.3472C75.5505 83.3472 76.9772 81.9205 76.9772 80.1606V9.35652C76.9772 7.5966 75.5505 6.16992 73.7906 6.16992Z"
                  fill="white"/>
            <path d="M70.6073 11.6543V77.8627C63.5179 65.0068 46.3304 57.4763 32.3936 56.7848V32.7325C46.3304 32.0408 63.5179 24.5105 70.6073 11.6543Z"
                  fill="#38BFF2"/>
            <path d="M32.3893 32.7289V56.791C32.3893 58.2169 31.2333 59.3729 29.8074 59.3729H9.79679C8.37083 59.3729 7.21484 58.2169 7.21484 56.791V32.7289C7.21484 31.303 8.37083 30.147 9.79679 30.147H29.8074C31.2333 30.1468 32.3893 31.303 32.3893 32.7289Z"
                  fill="white"/>
            <path d="M3.78069 35.8467H7.2147V53.6729H3.78069C2.46777 53.6729 1.40723 52.6125 1.40723 51.2994V38.2201C1.4074 36.9072 2.46777 35.8467 3.78069 35.8467Z"
                  fill="#38BFF2"/>
            <path d="M25.5083 27.6447V30.1429H14.1006V27.6447C14.1006 26.2759 15.2102 25.1665 16.5787 25.1665H23.0303C24.3989 25.1665 25.5083 26.2759 25.5083 27.6447Z"
                  fill="white"/>
            <path d="M18.3905 83.6098L25.8401 59.373H13.7632V83.1018C13.7632 84.0568 14.5374 84.831 15.4924 84.831H16.7377C17.4968 84.8308 18.1673 84.3357 18.3905 83.6098Z"
                  fill="#38BFF2"/>
            <path d="M90.5312 44.7765C90.5312 37.6006 84.951 31.7206 77.9157 31.2338V9.35595C77.9157 7.08202 76.0652 5.23145 73.7904 5.23145C71.5164 5.23145 69.6659 7.08202 69.6659 9.35595V11.4056C62.7632 23.6687 46.2956 30.8353 33.169 31.7423C32.739 30.2838 31.403 29.2091 29.8073 29.2091H26.4469V27.6443C26.4469 25.7607 24.9141 24.2279 23.0305 24.2279H16.5789C14.6953 24.2279 13.1625 25.7607 13.1625 27.6443V29.2091H9.79674C7.85624 29.2091 6.27689 30.7886 6.27689 32.7289V34.9085H3.78114C1.95528 34.9085 0.469238 36.3945 0.469238 38.2204V51.2995C0.469238 53.1253 1.95528 54.6105 3.78114 54.6105H6.27671V56.7909C6.27671 58.7314 7.85624 60.3108 9.79656 60.3108H12.8255V83.102C12.8255 84.5724 14.022 85.7689 15.4924 85.7689H16.7374C17.9165 85.7689 18.9408 85.0121 19.287 83.8853L26.5336 60.3108H29.8073C31.4039 60.3108 32.7408 59.2348 33.1697 57.7749C46.2961 58.682 62.7641 65.8488 69.6655 78.1105V80.1602C69.6655 82.4341 71.5161 84.2847 73.79 84.2847C76.0648 84.2847 77.9154 82.4341 77.9154 80.1602V58.2825C84.951 57.7971 90.5312 51.9329 90.5312 44.7765ZM15.0388 27.6443C15.0388 26.7951 15.7297 26.1042 16.5789 26.1042H23.0305C23.8797 26.1042 24.5706 26.7951 24.5706 27.6443V29.2044H15.0388V27.6443ZM3.78114 52.7341C2.98951 52.7341 2.34558 52.09 2.34558 51.2995V38.2204C2.34558 37.4287 2.98969 36.7848 3.78114 36.7848H6.27671V52.7341H3.78114ZM17.4933 83.3338V83.3347C17.3908 83.6681 17.0874 83.8926 16.7374 83.8926H15.4924C15.0563 83.8926 14.7019 83.538 14.7019 83.102V60.3108H24.5707L17.4933 83.3338ZM31.451 56.7909C31.451 57.697 30.7136 58.4345 29.8075 58.4345C22.7376 58.4345 16.8704 58.4345 9.79674 58.4345C8.89065 58.4345 8.15323 57.697 8.15323 56.7909C8.15323 50.7384 8.15323 38.7815 8.15323 32.7291C8.15323 31.823 8.89065 31.0856 9.79674 31.0856H29.8075C30.7136 31.0856 31.451 31.823 31.451 32.7291V56.7909ZM33.3318 55.9014V33.6158C46.0187 32.7254 61.7259 26.1664 69.6657 14.9181V74.598C61.727 63.3508 46.0188 56.7908 33.3318 55.9014ZM76.0394 80.1602C76.0394 81.3997 75.0308 82.4083 73.7902 82.4083C72.5507 82.4083 71.542 81.3997 71.542 80.1602C71.5466 -6.92025 71.542 15.7016 71.542 9.35595C71.542 8.11643 72.5507 7.10779 73.7902 7.10779C75.0306 7.10779 76.0394 8.11643 76.0394 9.35595V80.1602ZM77.9156 56.4163V33.1C83.9173 33.5801 88.6548 38.6336 88.6548 44.7765C88.6548 50.8999 83.9173 55.9371 77.9156 56.4163Z"
                  fill="#1A2E35"/>
            <path d="M28.033 33.8862H11.5714C11.0528 33.8862 10.6333 34.3059 10.6333 34.8243C10.6333 35.3428 11.0529 35.7624 11.5714 35.7624H28.033C28.5516 35.7624 28.971 35.3428 28.971 34.8243C28.971 34.3059 28.5514 33.8862 28.033 33.8862Z"
                  fill="#1A2E35"/>
            <path d="M28.033 38.8545H11.5714C11.0528 38.8545 10.6333 39.2741 10.6333 39.7926C10.6333 40.311 11.0529 40.7307 11.5714 40.7307H28.033C28.5516 40.7307 28.971 40.311 28.971 39.7926C28.971 39.2741 28.5514 38.8545 28.033 38.8545Z"
                  fill="#1A2E35"/>
            <path d="M28.033 43.8218H11.5714C11.0528 43.8218 10.6333 44.2414 10.6333 44.7599C10.6333 45.2783 11.0529 45.6979 11.5714 45.6979H28.033C28.5516 45.6979 28.971 45.2783 28.971 44.7599C28.971 44.2414 28.5514 43.8218 28.033 43.8218Z"
                  fill="#1A2E35"/>
            <path d="M28.033 48.7891H11.5714C11.0528 48.7891 10.6333 49.2087 10.6333 49.7271C10.6333 50.2458 11.0529 50.6652 11.5714 50.6652H28.033C28.5516 50.6652 28.971 50.2456 28.971 49.7271C28.971 49.2087 28.5514 48.7891 28.033 48.7891Z"
                  fill="#1A2E35"/>
            <path d="M28.033 53.7568H11.5714C11.0528 53.7568 10.6333 54.1765 10.6333 54.6949C10.6333 55.2136 11.0529 55.633 11.5714 55.633H28.033C28.5516 55.633 28.971 55.2134 28.971 54.6949C28.971 54.1763 28.5514 53.7568 28.033 53.7568Z"
                  fill="#1A2E35"/>

        </symbol>
        <symbol id="icon-ad-mob" viewBox="0 0 32 32">
            <path d="M31.835 15.746c0-2.523-1.962-4.591-4.436-4.762v-7.693c0-0.8-0.651-1.45-1.451-1.45s-1.45 0.651-1.45 1.45v0.721c-2.427 4.312-8.218 6.832-12.834 7.151-0.151-0.513-0.621-0.891-1.182-0.891h-1.182v-0.55c0-0.662-0.539-1.201-1.201-1.201h-2.269c-0.662 0-1.201 0.539-1.201 1.201v0.55h-1.184c-0.682 0-1.238 0.555-1.238 1.238v0.766h-0.878c-0.642 0-1.165 0.523-1.165 1.165v4.599c0 0.642 0.523 1.164 1.165 1.164h0.878v0.767c0 0.682 0.555 1.238 1.238 1.238h1.065v8.014c0 0.517 0.421 0.938 0.938 0.938h0.438c0.415 0 0.775-0.266 0.897-0.662l2.548-8.29h1.151c0.561 0 1.032-0.378 1.182-0.892 4.616 0.319 10.407 2.839 12.834 7.151v0.721c0 0.8 0.651 1.45 1.45 1.45s1.451-0.651 1.451-1.45v-7.693c2.474-0.171 4.436-2.233 4.436-4.749zM5.288 9.721c0-0.299 0.243-0.542 0.542-0.542h2.269c0.299 0 0.542 0.243 0.542 0.542v0.549h-3.352v-0.549zM1.33 18.544c-0.278 0-0.505-0.227-0.505-0.505v-4.599c0-0.278 0.227-0.505 0.505-0.505h0.878v5.609h-0.878zM6.152 29.304v0c-0.036 0.117-0.143 0.196-0.266 0.196h-0.438c-0.153 0-0.278-0.125-0.278-0.278v-8.014h3.47l-2.489 8.096zM11.060 19.97c0 0.319-0.259 0.578-0.578 0.578-2.486 0-4.549 0-7.037 0-0.319 0-0.578-0.259-0.578-0.578 0-2.128 0-6.333 0-8.461 0-0.319 0.259-0.578 0.578-0.578h7.037c0.319 0 0.578 0.259 0.578 0.578v8.461zM11.721 19.658v-7.837c4.461-0.313 9.985-2.62 12.777-6.575v20.986c-2.792-3.955-8.315-6.262-12.777-6.575zM26.739 28.188c0 0.436-0.355 0.791-0.791 0.791s-0.791-0.355-0.791-0.791c0.002-30.622 0-22.667 0-24.898 0-0.436 0.355-0.791 0.791-0.791s0.791 0.355 0.791 0.791v24.898zM27.399 19.839v-8.199c2.11 0.169 3.776 1.946 3.776 4.106 0 2.153-1.666 3.925-3.776 4.093z"></path>
        </symbol>
        <symbol id="icon-arrow" viewBox="0 0 32 32">
            <path fill="none" stroke="#fff" style="stroke: var(--color1, #fff)" stroke-linejoin="miter"
                  stroke-linecap="butt" stroke-miterlimit="4" stroke-width="2.9091"
                  d="M16.229 4.904l11.449 10.704-11.449 10.704"></path>
            <path fill="none" stroke="#fff" style="stroke: var(--color1, #fff)" stroke-linejoin="miter"
                  stroke-linecap="butt" stroke-miterlimit="4" stroke-width="2.9091" d="M27.738 15.614h-24.962"></path>
        </symbol>
        <symbol id="icon-arrow-btm">
            <path d="M18 3c0-1.105-0.895-2-2-2s-2 0.895-2 2h4zM14.586 30.414c0.781 0.781 2.047 0.781 2.828 0l12.728-12.728c0.781-0.781 0.781-2.047 0-2.828s-2.047-0.781-2.828 0l-11.314 11.314-11.314-11.314c-0.781-0.781-2.047-0.781-2.828 0s-0.781 2.047 0 2.828l12.728 12.728zM14 3v26h4v-26h-4z"></path>
        </symbol>
        <symbol id="icon-arrow-top" viewBox="0 0 32 32">
            <path fill="#fff" style="fill: var(--color1, #fff)"
                  d="M0.559 28.613c-0.766 0.796-0.741 2.062 0.055 2.828s2.062 0.741 2.828-0.055l-2.883-2.773zM30.937 1.961c-0.021-1.104-0.934-1.982-2.038-1.961l-17.997 0.348c-1.104 0.021-1.982 0.934-1.961 2.038s0.934 1.982 2.038 1.961l15.997-0.309 0.309 15.997c0.021 1.104 0.934 1.982 2.038 1.961s1.982-0.934 1.961-2.038l-0.348-17.997zM3.441 31.387l26.938-28-2.882-2.773-26.938 28 2.883 2.773z"></path>
        </symbol>
        <symbol id="icon-cross" viewBox="0 0 32 32">
            <path fill="#bcbcbc" style="fill: var(--color4, #bcbcbc)"
                  d="M0 29.083l29.083-29.083 2.077 2.077-29.083 29.083-2.077-2.077z"></path>
            <path fill="#bcbcbc" style="fill: var(--color4, #bcbcbc)"
                  d="M29.083 31.161l-29.083-29.083 2.077-2.077 29.083 29.083-2.077 2.077z"></path>
        </symbol>
        <symbol id="icon-f1" viewBox="0 0 32 32">
            <path fill="#fff" style="fill: var(--color1, #fff)"
                  d="M31.505 6.456v23.597c0 0.805-0.65 1.452-1.455 1.452h-28.101c-0.805 0-1.455-0.647-1.455-1.452v-23.597h31.010z"></path>
            <path fill="#38bff2" style="fill: var(--color2, #38bff2)"
                  d="M31.505 1.95v4.506h-31.010v-4.506c0-0.805 0.65-1.455 1.455-1.455h28.101c0.805 0 1.455 0.65 1.455 1.455z"></path>
            <path fill="#d7e9ff" style="fill: var(--color5, #d7e9ff)"
                  d="M4.479 3.474c0 0.42-0.341 0.761-0.761 0.761s-0.761-0.341-0.761-0.761c0-0.42 0.341-0.758 0.761-0.758s0.761 0.338 0.761 0.758z"></path>
            <path fill="#d7e9ff" style="fill: var(--color5, #d7e9ff)"
                  d="M7.695 3.474c0 0.42-0.341 0.761-0.761 0.761s-0.761-0.341-0.761-0.761 0.341-0.758 0.761-0.758c0.42 0 0.761 0.338 0.761 0.758z"></path>
            <path fill="#d7e9ff" style="fill: var(--color5, #d7e9ff)"
                  d="M10.912 3.474c0 0.42-0.341 0.761-0.761 0.761s-0.761-0.341-0.761-0.761 0.341-0.758 0.761-0.758c0.42 0 0.761 0.338 0.761 0.758z"></path>
            <path fill="#d7e9ff" style="fill: var(--color5, #d7e9ff)"
                  d="M29.043 3.473c0 0.42-0.343 0.76-0.764 0.76h-8.052c-0.42 0-0.76-0.339-0.76-0.76s0.339-0.756 0.76-0.756h8.052c0.42 0 0.764 0.335 0.764 0.756z"></path>
            <path fill="#1a2e35" style="fill: var(--color3, #1a2e35)"
                  d="M30.050 0.165h-28.101c-0.984 0-1.785 0.801-1.785 1.785v28.104c0 0.982 0.801 1.781 1.785 1.781h28.101c0.984 0 1.785-0.799 1.785-1.781 0-3.531 0-23.917 0-28.104 0-0.984-0.801-1.785-1.785-1.785zM0.825 1.95c0-0.62 0.505-1.125 1.125-1.125h28.101c0.62 0 1.125 0.505 1.125 1.125v4.176h-30.351v-4.176zM31.175 30.054c0 0.618-0.505 1.122-1.125 1.122h-28.101c-0.62 0-1.125-0.503-1.125-1.122v-23.268h30.351v23.268z"></path>
            <path fill="#1a2e35" style="fill: var(--color3, #1a2e35)"
                  d="M4.466 19.317c0.64 0 1.161 0.515 1.161 1.148v2.878c0 1.004 0.811 1.82 1.807 1.82 0.182 0 0.33-0.148 0.33-0.33s-0.148-0.33-0.33-0.33c-0.633 0-1.148-0.521-1.148-1.161v-2.878c0-0.615-0.311-1.16-0.785-1.486 0.467-0.332 0.773-0.874 0.773-1.482v-2.878c0-0.64 0.515-1.161 1.148-1.161 0.182 0 0.33-0.148 0.33-0.33s-0.148-0.33-0.33-0.33c-0.997 0-1.808 0.817-1.808 1.82v2.878c0 0.63-0.517 1.15-1.153 1.161-0.434 0.007-0.428 0.66 0.005 0.66z"></path>
            <path fill="#1a2e35" style="fill: var(--color3, #1a2e35)"
                  d="M25.713 20.465v2.878c0 0.64-0.515 1.161-1.148 1.161-0.182 0-0.33 0.148-0.33 0.33s0.148 0.33 0.33 0.33c0.996 0 1.807-0.817 1.807-1.82v-2.878c0-0.633 0.521-1.148 1.161-1.148 0.433 0 0.438-0.653 0.005-0.66-0.636-0.010-1.153-0.531-1.153-1.161v-2.878c0-1.004-0.811-1.82-1.808-1.82-0.182 0-0.33 0.148-0.33 0.33s0.148 0.33 0.33 0.33c0.633 0 1.148 0.521 1.148 1.161v2.878c0 0.608 0.306 1.15 0.773 1.482-0.474 0.327-0.785 0.871-0.785 1.486z"></path>
            <path fill="#1a2e35" style="fill: var(--color3, #1a2e35)"
                  d="M13.785 24.716c0.17 0.066 0.361-0.019 0.427-0.189l4.192-10.855c0.066-0.17-0.019-0.361-0.189-0.427s-0.361 0.019-0.427 0.189l-4.192 10.855c-0.066 0.17 0.019 0.361 0.189 0.427z"></path>
            <path fill="#1a2e35" style="fill: var(--color3, #1a2e35)"
                  d="M22.62 18.986l-3.803 2.57c-0.151 0.102-0.191 0.307-0.089 0.458s0.308 0.19 0.458 0.089l4.207-2.843c0.195-0.131 0.192-0.416 0.001-0.546l-4.207-2.854c-0.15-0.102-0.356-0.063-0.458 0.088s-0.063 0.356 0.088 0.458l3.804 2.581z"></path>
            <path fill="#1a2e35" style="fill: var(--color3, #1a2e35)"
                  d="M8.606 19.259l4.167 2.843c0.15 0.103 0.356 0.064 0.458-0.087s0.064-0.356-0.087-0.458l-3.768-2.571 3.769-2.581c0.15-0.103 0.188-0.308 0.086-0.459s-0.308-0.189-0.459-0.086l-4.167 2.854c-0.090 0.062-0.143 0.164-0.143 0.273s0.054 0.211 0.144 0.272z"></path>
            <path fill="#1a2e35" style="fill: var(--color3, #1a2e35)"
                  d="M3.718 2.386c-0.601 0-1.091 0.488-1.091 1.088 0 0.602 0.489 1.091 1.091 1.091s1.091-0.489 1.091-1.091c-0-0.6-0.489-1.088-1.091-1.088zM3.718 3.905c-0.237 0-0.431-0.193-0.431-0.431 0-0.236 0.193-0.428 0.431-0.428s0.431 0.192 0.431 0.428c-0 0.238-0.193 0.431-0.431 0.431z"></path>
            <path fill="#1a2e35" style="fill: var(--color3, #1a2e35)"
                  d="M6.935 2.386c-0.601 0-1.091 0.488-1.091 1.088 0 0.602 0.489 1.091 1.091 1.091s1.090-0.489 1.090-1.091c0-0.6-0.489-1.088-1.090-1.088zM6.935 3.905c-0.238 0-0.431-0.193-0.431-0.431 0-0.236 0.193-0.428 0.431-0.428s0.431 0.192 0.431 0.428c0 0.238-0.193 0.431-0.431 0.431z"></path>
            <path fill="#1a2e35" style="fill: var(--color3, #1a2e35)"
                  d="M10.152 2.386c-0.602 0-1.091 0.488-1.091 1.088 0 0.602 0.489 1.091 1.091 1.091s1.090-0.489 1.090-1.091c0-0.6-0.489-1.088-1.090-1.088zM10.152 3.905c-0.238 0-0.431-0.193-0.431-0.431 0-0.236 0.193-0.428 0.431-0.428s0.431 0.192 0.431 0.428c0 0.238-0.193 0.431-0.431 0.431z"></path>
            <path fill="#1a2e35" style="fill: var(--color3, #1a2e35)"
                  d="M28.279 2.388h-8.052c-0.601 0-1.090 0.487-1.090 1.085 0 0.601 0.489 1.090 1.090 1.090h8.052c0.603 0 1.093-0.489 1.093-1.090 0-0.598-0.491-1.085-1.093-1.085zM28.279 3.903h-8.052c-0.237 0-0.43-0.193-0.43-0.43 0-0.239 0.189-0.426 0.43-0.426h8.052c0.239 0 0.434 0.191 0.434 0.426 0 0.237-0.195 0.43-0.434 0.43z"></path>
        </symbol>
        <symbol id="icon-f2" viewBox="0 0 32 32">
            <path fill="#38bff2" style="fill: var(--color2, #38bff2)"
                  d="M20.61 16c0 2.546-2.064 4.61-4.61 4.61s-4.61-2.064-4.61-4.61c0-2.546 2.064-4.61 4.61-4.61s4.61 2.064 4.61 4.61z"></path>
            <path fill="#38bff2" style="fill: var(--color2, #38bff2)"
                  d="M24.949 2.983c0 1.348-1.093 2.441-2.441 2.441s-2.441-1.093-2.441-2.441c0-1.348 1.093-2.441 2.441-2.441s2.441 1.093 2.441 2.441z"></path>
            <path fill="#38bff2" style="fill: var(--color2, #38bff2)"
                  d="M5.424 9.492c0 1.348-1.093 2.441-2.441 2.441s-2.441-1.093-2.441-2.441c0-1.348 1.093-2.441 2.441-2.441s2.441 1.093 2.441 2.441z"></path>
            <path fill="#38bff2" style="fill: var(--color2, #38bff2)"
                  d="M11.932 29.017c0 1.348-1.093 2.441-2.441 2.441s-2.441-1.093-2.441-2.441c0-1.348 1.093-2.441 2.441-2.441s2.441 1.093 2.441 2.441z"></path>
            <path fill="#38bff2" style="fill: var(--color2, #38bff2)"
                  d="M31.458 22.508c0 1.348-1.093 2.441-2.441 2.441s-2.441-1.093-2.441-2.441c0-1.348 1.093-2.441 2.441-2.441s2.441 1.093 2.441 2.441z"></path>
            <path fill="#1a2e35" style="fill: var(--color3, #1a2e35)"
                  d="M11.243 14.726c-0.702 2.623 0.86 5.328 3.482 6.031 0.425 0.114 0.852 0.168 1.273 0.168 2.174 0 4.169-1.453 4.758-3.65 0.34-1.27 0.166-2.597-0.492-3.736s-1.72-1.954-2.99-2.294c-1.271-0.341-2.598-0.166-3.736 0.492s-1.954 1.72-2.294 2.99zM16.001 11.941c0.347 0 0.699 0.045 1.050 0.139h0c1.047 0.28 1.923 0.952 2.465 1.891s0.686 2.033 0.406 3.080c-0.579 2.162-2.81 3.451-4.971 2.871-2.162-0.579-3.45-2.809-2.871-4.971 0.485-1.812 2.129-3.009 3.922-3.009zM7.446 14.075c0.011 0.001 0.021 0.001 0.032 0.001 0.225 0 0.414-0.174 0.431-0.402 0.543-7.584 6.228-10.827 11.767-10.744 0.020 0.444 0.144 0.88 0.373 1.276 0.374 0.649 0.979 1.113 1.703 1.307 0.242 0.065 0.486 0.097 0.73 0.097 0.486 0 0.966-0.128 1.398-0.377 0.5-0.289 0.889-0.716 1.131-1.227 2.020 0.78 3.905 1.944 5.606 3.473 0.083 0.074 0.186 0.111 0.289 0.111 0.119 0 0.237-0.048 0.322-0.143 0.16-0.178 0.145-0.451-0.032-0.611-1.799-1.617-3.797-2.844-5.94-3.662 0.183-1.375-0.677-2.709-2.052-3.077-1.491-0.399-3.028 0.486-3.431 1.974-7.014-0.156-12.223 4.542-12.725 11.543-0.017 0.238 0.162 0.445 0.4 0.462zM20.603 2.302c0.232-0.865 1.017-1.438 1.874-1.438 0.166 0 0.334 0.021 0.502 0.066 1.033 0.277 1.648 1.342 1.371 2.375s-1.343 1.648-2.375 1.371c-1.033-0.277-1.648-1.342-1.371-2.375zM2.070 12.23c-0.156 7.013 4.542 12.223 11.543 12.725 0.011 0.001 0.021 0.001 0.032 0.001 0.225 0 0.414-0.174 0.431-0.402 0.017-0.238-0.162-0.445-0.4-0.462-7.586-0.544-10.831-6.232-10.744-11.771 0.444-0.020 0.88-0.141 1.276-0.369 0.649-0.374 1.113-0.979 1.307-1.703s0.094-1.479-0.28-2.128c-0.289-0.5-0.716-0.889-1.227-1.131 0.78-2.020 1.944-3.905 3.473-5.606 0.16-0.178 0.145-0.451-0.032-0.611s-0.452-0.145-0.611 0.032c-1.617 1.799-2.844 3.797-3.662 5.94-1.375-0.183-2.709 0.677-3.077 2.052-0.399 1.49 0.486 3.027 1.974 3.432zM0.931 9.022c0.232-0.865 1.017-1.438 1.874-1.438 0.166 0 0.334 0.021 0.502 0.066 1.033 0.277 1.648 1.342 1.371 2.375s-1.343 1.648-2.375 1.371c-1.033-0.277-1.648-1.342-1.371-2.375zM24.554 17.925c-0.242-0.020-0.445 0.162-0.462 0.4-0.543 7.584-6.227 10.831-11.767 10.744-0.020-0.444-0.144-0.88-0.373-1.276-0.374-0.649-0.979-1.113-1.703-1.307s-1.479-0.094-2.128 0.28c-0.5 0.289-0.889 0.716-1.131 1.227-2.020-0.78-3.905-1.944-5.606-3.473-0.178-0.16-0.452-0.145-0.611 0.032s-0.145 0.451 0.032 0.611c1.799 1.617 3.797 2.844 5.94 3.662-0.183 1.375 0.677 2.709 2.052 3.077 0.242 0.065 0.485 0.096 0.725 0.096 1.235 0 2.369-0.824 2.707-2.070 0.113 0.003 0.227 0.008 0.339 0.008 6.841 0 11.892-4.662 12.385-11.551 0.017-0.238-0.162-0.445-0.4-0.462zM11.397 29.698c-0.277 1.033-1.344 1.648-2.375 1.371-1.033-0.277-1.648-1.342-1.371-2.375 0.232-0.865 1.017-1.438 1.874-1.438 0.166 0 0.334 0.021 0.502 0.066 1.033 0.277 1.648 1.342 1.371 2.375zM29.93 19.77c0.156-7.013-4.541-12.223-11.543-12.725-0.238-0.018-0.445 0.162-0.462 0.4s0.162 0.445 0.4 0.462c7.584 0.543 10.83 6.23 10.744 11.767-0.444 0.020-0.88 0.145-1.276 0.373-0.649 0.374-1.113 0.979-1.307 1.703s-0.094 1.479 0.28 2.128c0.289 0.5 0.716 0.889 1.227 1.131-0.78 2.020-1.944 3.905-3.473 5.606-0.16 0.178-0.145 0.451 0.032 0.611 0.083 0.074 0.186 0.111 0.289 0.111 0.119 0 0.237-0.048 0.322-0.143 1.616-1.798 2.843-3.795 3.662-5.938 0.123 0.017 0.247 0.025 0.369 0.025 1.238 0 2.374-0.827 2.71-2.079 0.399-1.49-0.486-3.027-1.974-3.432zM31.069 22.978c-0.277 1.033-1.343 1.648-2.375 1.371s-1.648-1.342-1.371-2.375c0.232-0.865 1.017-1.438 1.874-1.438 0.166 0 0.334 0.021 0.502 0.066 1.033 0.277 1.648 1.342 1.371 2.375z"></path>
        </symbol>
        <symbol id="icon-f3" viewBox="0 0 32 32">
            <path fill="#fff" style="fill: var(--color1, #fff)"
                  d="M31.505 3.901v16.265h-31.010v-16.265c0-0.739 0.591-1.338 1.32-1.338h28.371c0.729-0 1.32 0.599 1.32 1.338z"></path>
            <path fill="#38bff2" style="fill: var(--color2, #38bff2)"
                  d="M0.495 20.166v2.99c0 0.739 0.591 1.338 1.32 1.338h28.371c0.729 0 1.32-0.599 1.32-1.338v-2.99h-31.010z"></path>
            <path fill="#d7e9ff" style="fill: var(--color5, #d7e9ff)"
                  d="M12.539 24.495h6.921v3.15h-6.921v-3.15z"></path>
            <path fill="#38bff2" style="fill: var(--color2, #38bff2)"
                  d="M22.235 28.034l0.825 0.832c0.209 0.211 0.062 0.572-0.233 0.572h-13.654c-0.294 0-0.441-0.361-0.233-0.572l0.825-0.832c0.247-0.25 0.582-0.39 0.931-0.39h10.609c0.349 0 0.684 0.14 0.931 0.39z"></path>
            <path fill="#d7e9ff" style="fill: var(--color5, #d7e9ff)"
                  d="M16 22.996c0.363 0 0.657-0.298 0.657-0.666s-0.294-0.666-0.657-0.666c-0.363 0-0.656 0.298-0.656 0.666s0.294 0.666 0.656 0.666z"></path>
            <path fill="#1a2e35" style="fill: var(--color3, #1a2e35)"
                  d="M31.835 3.9c0-0.922-0.74-1.673-1.649-1.673h-28.371c-0.909 0-1.649 0.751-1.649 1.673v19.256c0 0.922 0.74 1.673 1.649 1.673h10.395v2.48h-1.514c-0.439 0-0.852 0.173-1.163 0.487l-0.825 0.832c-0.416 0.42-0.123 1.144 0.465 1.144h13.655c0.587 0 0.882-0.723 0.465-1.144l-0.825-0.832c-0.311-0.314-0.724-0.487-1.163-0.487h-1.514v-2.48h10.395c0.91 0 1.649-0.751 1.649-1.673 0-6.84 0-11.924 0-19.256zM0.825 3.9c0-0.554 0.444-1.004 0.99-1.004h28.371c0.546 0 0.99 0.45 0.99 1.004v15.931h-30.351v-15.931zM22.002 28.271c0 0 0 0 0 0l0.825 0.832h-13.655l0.825-0.833c0.187-0.188 0.434-0.292 0.697-0.292h10.609c0.263 0 0.511 0.104 0.698 0.292zM19.131 27.309h-6.262v-2.48h6.262v2.48zM31.175 23.156c0 0.554-0.444 1.004-0.99 1.004-9.462 0-18.931 0-28.371 0-0.546 0-0.99-0.45-0.99-1.004v-2.655h30.351v2.655z"></path>
            <path fill="#1a2e35" style="fill: var(--color3, #1a2e35)"
                  d="M16 23.331c0.544 0 0.986-0.449 0.986-1s-0.443-1.001-0.986-1.001c-0.544 0-0.986 0.449-0.986 1.001s0.443 1 0.986 1zM16 21.999c0.18 0 0.327 0.149 0.327 0.331s-0.147 0.331-0.327 0.331c-0.18 0-0.327-0.149-0.327-0.331s0.147-0.331 0.327-0.331z"></path>
            <path fill="#1a2e35" style="fill: var(--color3, #1a2e35)"
                  d="M25.63 6.171h-22.101c-0.182 0-0.33 0.15-0.33 0.335s0.148 0.335 0.33 0.335h22.101c0.182 0 0.33-0.15 0.33-0.335s-0.148-0.335-0.33-0.335z"></path>
            <path fill="#1a2e35" style="fill: var(--color3, #1a2e35)"
                  d="M25.63 8.457h-22.101c-0.182 0-0.33 0.15-0.33 0.335s0.148 0.335 0.33 0.335h22.101c0.182 0 0.33-0.15 0.33-0.335s-0.148-0.335-0.33-0.335z"></path>
            <path fill="#1a2e35" style="fill: var(--color3, #1a2e35)"
                  d="M21.059 10.743h-17.529c-0.182 0-0.33 0.15-0.33 0.335s0.148 0.335 0.33 0.335h17.529c0.182 0 0.33-0.15 0.33-0.335s-0.148-0.335-0.33-0.335z"></path>
            <path fill="#1a2e35" style="fill: var(--color3, #1a2e35)"
                  d="M16.488 13.029h-12.958c-0.182 0-0.33 0.15-0.33 0.335s0.148 0.335 0.33 0.335h12.958c0.182 0 0.33-0.15 0.33-0.335s-0.148-0.335-0.33-0.335z"></path>
            <path fill="#1a2e35" style="fill: var(--color3, #1a2e35)"
                  d="M11.916 15.314h-8.386c-0.182 0-0.33 0.15-0.33 0.335s0.148 0.335 0.33 0.335h8.386c0.182 0 0.33-0.15 0.33-0.335s-0.148-0.335-0.33-0.335z"></path>
        </symbol>
        <symbol id="icon-f4" viewBox="0 0 32 32">
            <path fill="#fff" style="fill: var(--color1, #fff)"
                  d="M28.247 4.943v23.161c0 0.608-0.492 1.1-1.1 1.1h-22.269c-0.608 0-1.1-0.492-1.1-1.1v-1.442c-0.594 0-1.132-0.243-1.52-0.631-0.394-0.388-0.631-0.929-0.631-1.523h2.151v-19.565c0-0.608 0.492-1.1 1.1-1.1h22.269c0.608 0 1.1 0.492 1.1 1.1z"></path>
            <path fill="#38bff2" style="fill: var(--color2, #38bff2)"
                  d="M3.862 26.404c-1.138 0-1.694-1.355-1.829-2.033l22.155-0.203c0.418 1.674 1.365 2.171 1.968 2.236h0.268c-0.077 0.010-0.168 0.011-0.268 0h-22.294z"></path>
            <path fill="#38bff2" style="fill: var(--color2, #38bff2)"
                  d="M8.525 12.379c-0.96 0-1.74 0.779-1.74 1.736s0.781 1.737 1.74 1.737c0.957 0 1.736-0.779 1.736-1.737s-0.779-1.736-1.736-1.736z"></path>
            <path fill="#1a2e35" style="fill: var(--color3, #1a2e35)"
                  d="M8.525 12.379c-0.96 0-1.74 0.779-1.74 1.736s0.781 1.737 1.74 1.737c0.957 0 1.736-0.779 1.736-1.737s-0.779-1.736-1.736-1.736zM8.525 15.273c-0.64 0-1.161-0.519-1.161-1.158s0.521-1.157 1.161-1.157c0.638 0 1.157 0.519 1.157 1.157s-0.519 1.158-1.157 1.158z"></path>
            <path fill="#38bff2" style="fill: var(--color2, #38bff2)"
                  d="M13.668 12.379c-0.96 0-1.74 0.779-1.74 1.736s0.781 1.737 1.74 1.737c0.958 0 1.737-0.779 1.737-1.737s-0.779-1.736-1.737-1.736z"></path>
            <path fill="#1a2e35" style="fill: var(--color3, #1a2e35)"
                  d="M13.668 12.379c-0.96 0-1.74 0.779-1.74 1.736s0.781 1.737 1.74 1.737c0.958 0 1.737-0.779 1.737-1.737s-0.779-1.736-1.737-1.736zM13.668 15.273c-0.64 0-1.161-0.519-1.161-1.158s0.521-1.157 1.161-1.157c0.638 0 1.157 0.519 1.157 1.157s-0.519 1.158-1.157 1.158z"></path>
            <path fill="#38bff2" style="fill: var(--color2, #38bff2)"
                  d="M18.811 12.414c-0.96 0-1.74 0.779-1.74 1.736s0.781 1.737 1.74 1.737c0.958 0 1.737-0.779 1.737-1.737s-0.779-1.736-1.737-1.736z"></path>
            <path fill="#1a2e35" style="fill: var(--color3, #1a2e35)"
                  d="M18.811 12.379c-0.96 0-1.74 0.779-1.74 1.736s0.781 1.737 1.74 1.737c0.958 0 1.737-0.779 1.737-1.737s-0.779-1.736-1.737-1.736zM18.811 15.273c-0.64 0-1.161-0.519-1.161-1.158s0.521-1.157 1.161-1.157c0.638 0 1.157 0.519 1.157 1.157s-0.519 1.158-1.157 1.158z"></path>
            <path fill="#38bff2" style="fill: var(--color2, #38bff2)"
                  d="M23.954 15.852c0.958 0 1.737-0.779 1.737-1.737s-0.779-1.736-1.737-1.736c-0.96 0-1.74 0.779-1.74 1.736s0.781 1.737 1.74 1.737z"></path>
            <path fill="#1a2e35" style="fill: var(--color3, #1a2e35)"
                  d="M23.954 15.852c0.958 0 1.737-0.779 1.737-1.737s-0.779-1.736-1.737-1.736c-0.96 0-1.74 0.779-1.74 1.736s0.781 1.737 1.74 1.737zM23.954 12.958c0.638 0 1.157 0.519 1.157 1.157s-0.519 1.158-1.157 1.158c-0.64 0-1.161-0.519-1.161-1.158s0.521-1.157 1.161-1.157z"></path>
            <path fill="#38bff2" style="fill: var(--color2, #38bff2)"
                  d="M8.525 17.257c-0.96 0-1.74 0.779-1.74 1.737s0.781 1.736 1.74 1.736c0.957 0 1.736-0.779 1.736-1.736s-0.779-1.737-1.736-1.737z"></path>
            <path fill="#1a2e35" style="fill: var(--color3, #1a2e35)"
                  d="M8.525 17.257c-0.96 0-1.74 0.779-1.74 1.737s0.781 1.736 1.74 1.736c0.957 0 1.736-0.779 1.736-1.736s-0.779-1.737-1.736-1.737zM8.525 20.151c-0.64 0-1.161-0.519-1.161-1.157s0.521-1.158 1.161-1.158c0.638 0 1.157 0.519 1.157 1.158s-0.519 1.157-1.157 1.157z"></path>
            <path fill="#38bff2" style="fill: var(--color2, #38bff2)"
                  d="M13.668 17.257c-0.96 0-1.74 0.779-1.74 1.737s0.781 1.736 1.74 1.736c0.958 0 1.737-0.779 1.737-1.736s-0.779-1.737-1.737-1.737z"></path>
            <path fill="#1a2e35" style="fill: var(--color3, #1a2e35)"
                  d="M13.668 17.257c-0.96 0-1.74 0.779-1.74 1.737s0.781 1.736 1.74 1.736c0.958 0 1.737-0.779 1.737-1.736s-0.779-1.737-1.737-1.737zM13.668 20.151c-0.64 0-1.161-0.519-1.161-1.157s0.521-1.158 1.161-1.158c0.638 0 1.157 0.519 1.157 1.158s-0.519 1.157-1.157 1.157z"></path>
            <path fill="#1a2e35" style="fill: var(--color3, #1a2e35)"
                  d="M18.811 17.257c-0.96 0-1.74 0.779-1.74 1.737s0.781 1.736 1.74 1.736c0.958 0 1.737-0.779 1.737-1.736s-0.779-1.737-1.737-1.737zM18.811 20.151c-0.64 0-1.161-0.519-1.161-1.157s0.521-1.158 1.161-1.158c0.638 0 1.157 0.519 1.157 1.158s-0.519 1.157-1.157 1.157z"></path>
            <path fill="#1a2e35" style="fill: var(--color3, #1a2e35)"
                  d="M25.69 18.994c0-0.958-0.779-1.737-1.737-1.737-0.96 0-1.74 0.779-1.74 1.737s0.781 1.736 1.74 1.736c0.958 0 1.737-0.779 1.737-1.736zM23.954 20.151c-0.64 0-1.161-0.519-1.161-1.157s0.521-1.158 1.161-1.158c0.638 0 1.157 0.519 1.157 1.158s-0.519 1.157-1.157 1.157z"></path>
            <path fill="#1a2e35" style="fill: var(--color3, #1a2e35)"
                  d="M27.372 3.303h-2.324v-1.566c0-0.16-0.13-0.29-0.29-0.29s-0.29 0.129-0.29 0.29v1.566h-17.154v-1.566c0-0.16-0.13-0.29-0.29-0.29s-0.29 0.129-0.29 0.29v1.566h-1.633c-0.766 0-1.39 0.623-1.39 1.39-0 2.547-0.001 19.167-0.001 19.276h-1.862c-0.16 0-0.29 0.129-0.29 0.29 0 1.286 0.971 2.284 2.152 2.423v1.172c0 0.766 0.623 1.39 1.39 1.39h22.269c0.766 0 1.39-0.623 1.39-1.39 0-5.107 0-18.313 0-23.161-0-0.766-0.623-1.39-1.39-1.39zM5.103 3.882h1.633v2.298c0 0.16 0.13 0.29 0.29 0.29s0.29-0.13 0.29-0.29v-2.298h17.154v2.298c0 0.16 0.13 0.29 0.29 0.29s0.29-0.13 0.29-0.29v-2.298h2.324c0.447 0 0.811 0.364 0.811 0.811v3.784h-23.889v-3.785c0-0.447 0.364-0.811 0.811-0.811zM4.292 9.056h23.89v15.201c0 1.028-0.835 1.864-1.861 1.864-0.001 0-0.002-0-0.003-0-1.029 0-1.863-0.834-1.863-1.863 0-0.16-0.13-0.29-0.29-0.29h-19.874v-14.912zM2.162 24.547h21.732c0.073 0.617 0.375 1.173 0.847 1.574h-20.737c-0.938 0-1.706-0.691-1.841-1.574zM28.182 27.853c0 0.447-0.364 0.811-0.811 0.811h-22.269c-0.447 0-0.811-0.364-0.811-0.811v-1.153h22.029c0.746 0 1.414-0.338 1.862-0.867v2.020h-0z"></path>
        </symbol>
        <symbol id="icon-f5"  viewBox="0 0 64 57" fill="none">
            <path d="M0.75 5.99999C0.75 3.1005 3.1005 0.75 6 0.75H43.3269C46.2264 0.75 48.5769 3.10051 48.5769 6V34.5577C48.5769 37.4572 46.2264 39.8077 43.3269 39.8077H19.4188C17.7034 39.8077 16.0128 40.2182 14.4884 41.005L2.57331 47.1548C1.74134 47.5842 0.75 46.9802 0.75 46.044V40.5577V5.99999Z" fill="white" stroke="#263238" stroke-width="1.5"/>
            <path d="M51.7265 13.1538H56.481C59.7947 13.1538 62.481 15.8401 62.481 19.1538V48.6205V53.4776C62.481 55.03 60.7893 55.9905 59.4561 55.195L50.8054 50.0331C49.256 49.1086 47.4854 48.6205 45.6812 48.6205H27.2457C24.3062 48.6205 21.9233 46.2375 21.9233 43.298V43.298" stroke="#263238" stroke-width="1.5"/>
            <rect x="10.2114" y="12.4038" width="30" height="3.69231" rx="1.84615" fill="#38BFF2" stroke="#263238" stroke-width="1.5"/>
            <rect x="10.2114" y="20.0769" width="23.4231" height="3.69231" rx="1.84615" fill="#38BFF2" stroke="#263238" stroke-width="1.5"/>
        </symbol>
        <symbol id="icon-f6" viewBox="0 0 32 32">
            <path fill="#38bff2" style="fill: var(--color2, #38bff2)"
                  d="M27.073 27.076c6.117-6.117 6.117-16.035 0-22.153s-16.035-6.117-22.153 0c-6.117 6.117-6.117 16.035 0 22.153s16.035 6.117 22.153 0z"></path>
            <path fill="#fff" style="fill: var(--color1, #fff)"
                  d="M16 28.333c6.812 0 12.333-5.522 12.333-12.333s-5.522-12.333-12.333-12.333-12.333 5.522-12.333 12.333c0 6.812 5.522 12.333 12.333 12.333z"></path>
            <path fill="#1a2e35" style="fill: var(--color3, #1a2e35)"
                  d="M16 0c-8.822 0-16 7.178-16 16s7.178 16 16 16c8.822 0 16-7.178 16-16s-7.178-16-16-16zM16 31.333c-8.455 0-15.333-6.879-15.333-15.333s6.879-15.333 15.333-15.333c8.455 0 15.333 6.879 15.333 15.333s-6.879 15.333-15.333 15.333z"></path>
            <path fill="#1a2e35" style="fill: var(--color3, #1a2e35)"
                  d="M16 3.333c-6.984 0-12.667 5.682-12.667 12.667s5.682 12.667 12.667 12.667 12.667-5.682 12.667-12.667c0-6.984-5.682-12.667-12.667-12.667zM16 28c-6.617 0-12-5.383-12-12s5.383-12 12-12 12 5.383 12 12c0 6.617-5.383 12-12 12z"></path>
            <path fill="#1a2e35" style="fill: var(--color3, #1a2e35)"
                  d="M17.335 8.794h-4.433c-0.006-0-0.010-0.003-0.016-0.003-0.184 0-0.333 0.149-0.333 0.333v6.377h-1.24c-0.184 0-0.333 0.149-0.333 0.333s0.149 0.333 0.333 0.333h1.24v1.411h-1.24c-0.184 0-0.333 0.149-0.333 0.333s0.149 0.333 0.333 0.333h1.24v4.629c0 0.184 0.149 0.333 0.333 0.333s0.333-0.149 0.333-0.333v-4.629h6.015c0.184 0 0.333-0.149 0.333-0.333s-0.149-0.333-0.333-0.333h-6.015v-1.411h3.883c2.044 0 3.761-1.489 3.909-3.39 0-0 0-0 0-0 0.171-2.21-1.573-3.983-3.676-3.983zM20.346 12.726v-0c-0.121 1.556-1.546 2.776-3.244 2.776h-3.883v-6.041h4.116c1.721 0 3.152 1.45 3.011 3.265z"></path>
        </symbol>
        <symbol id="icon-f7" viewBox="0 0 32 32">
            <path fill="#fff" style="fill: var(--color1, #fff)"
                  d="M20.942 2.144v27.711c0 0.911-0.738 1.649-1.649 1.649h-14.894c-0.911 0-1.649-0.738-1.649-1.649v-27.711c0-0.911 0.739-1.649 1.649-1.649h14.894c0.911 0 1.649 0.739 1.649 1.649z"></path>
            <path fill="#38bff2" style="fill: var(--color2, #38bff2)"
                  d="M16.434 0.495v1.317c0 0.729-0.591 1.32-1.32 1.32h-6.539c-0.729 0-1.32-0.591-1.32-1.32v-1.317h9.178z"></path>
            <path fill="#38bff2" style="fill: var(--color2, #38bff2)"
                  d="M29.251 11.075v10.51c0 0.729-0.591 1.32-1.32 1.32h-16.086v-13.15h16.086c0.729 0 1.32 0.591 1.32 1.32z"></path>
            <path fill="#d7e9ff" style="fill: var(--color5, #d7e9ff)"
                  d="M11.845 12.452h17.405v3.27h-17.405v-3.27z"></path>
            <path fill="#1a2e35" style="fill: var(--color3, #1a2e35)"
                  d="M7.497 29.196c-0.182 0-0.33 0.148-0.33 0.33s0.148 0.33 0.33 0.33h8.698c0.182 0 0.33-0.148 0.33-0.33s-0.148-0.33-0.33-0.33h-8.698z"></path>
            <path fill="#1a2e35" style="fill: var(--color3, #1a2e35)"
                  d="M14.238 2.143h0.589c0.182 0 0.33-0.148 0.33-0.33s-0.148-0.33-0.33-0.33h-0.589c-0.182 0-0.33 0.148-0.33 0.33s0.148 0.33 0.33 0.33z"></path>
            <path fill="#1a2e35" style="fill: var(--color3, #1a2e35)"
                  d="M8.864 2.143h3.829c0.182 0 0.33-0.148 0.33-0.33s-0.148-0.33-0.33-0.33h-3.829c-0.182 0-0.33 0.148-0.33 0.33s0.148 0.33 0.33 0.33z"></path>
            <path fill="#1a2e35" style="fill: var(--color3, #1a2e35)"
                  d="M27.931 9.425h-6.659v-7.281c0-1.091-0.888-1.979-1.979-1.979-3.244 0-11.648 0-14.894 0-1.091 0-1.979 0.888-1.979 1.979v27.711c0 1.092 0.888 1.979 1.979 1.979h14.894c1.092 0 1.979-0.888 1.979-1.979v-6.621h6.659c0.91 0 1.649-0.74 1.649-1.649 0-3.836 0-6.733 0-10.51 0-0.909-0.74-1.649-1.649-1.649zM28.921 11.075v1.047h-16.746v-2.037h15.756c0.546 0 0.99 0.444 0.99 0.99zM28.921 15.392h-16.746v-2.61h16.746v2.61zM16.105 0.825v0.987c0 0.546-0.444 0.99-0.99 0.99h-6.538c-0.546 0-0.99-0.444-0.99-0.99v-0.987h8.518zM20.612 29.856c0 0.728-0.592 1.32-1.32 1.32h-14.894c-0.728 0-1.32-0.592-1.32-1.32v-27.711c0-0.728 0.592-1.32 1.32-1.32h2.528v0.987c0 0.91 0.74 1.649 1.649 1.649h6.538c0.91 0 1.649-0.74 1.649-1.649v-0.987h2.528c0.728 0 1.32 0.592 1.32 1.32v7.281h-8.437v-1.488c0-0.182-0.148-0.33-0.33-0.33s-0.33 0.148-0.33 0.33v16.782c0 0.182 0.148 0.33 0.33 0.33s0.33-0.148 0.33-0.33v-1.485h8.437v6.621h0zM27.931 22.575h-15.756v-4.032h10.907c0.182 0 0.33-0.148 0.33-0.33s-0.148-0.33-0.33-0.33h-10.907v-1.831h16.746v5.534c0 0.546-0.444 0.99-0.99 0.99z"></path>
            <path fill="#1a2e35" style="fill: var(--color3, #1a2e35)"
                  d="M23.082 20.084h-0.945c-0.182 0-0.33 0.148-0.33 0.33s0.148 0.33 0.33 0.33h0.945c0.182 0 0.33-0.148 0.33-0.33s-0.148-0.33-0.33-0.33z"></path>
            <path fill="#1a2e35" style="fill: var(--color3, #1a2e35)"
                  d="M20.38 20.084h-0.945c-0.182 0-0.33 0.148-0.33 0.33s0.148 0.33 0.33 0.33h0.945c0.182 0 0.33-0.148 0.33-0.33s-0.148-0.33-0.33-0.33z"></path>
            <path fill="#1a2e35" style="fill: var(--color3, #1a2e35)"
                  d="M17.679 20.084h-0.945c-0.182 0-0.33 0.148-0.33 0.33s0.148 0.33 0.33 0.33h0.945c0.182 0 0.33-0.148 0.33-0.33s-0.148-0.33-0.33-0.33z"></path>
            <path fill="#1a2e35" style="fill: var(--color3, #1a2e35)"
                  d="M14.978 20.084h-0.945c-0.182 0-0.33 0.148-0.33 0.33s0.148 0.33 0.33 0.33h0.945c0.182 0 0.33-0.148 0.33-0.33s-0.148-0.33-0.33-0.33z"></path>
        </symbol>
        <symbol id="icon-fb" viewBox="0 0 32 32">
            <path fill="#fff" style="fill: var(--color1, #fff)"
                  d="M19.237 7.366h3.814v-5.534h-4.483v0.020c-5.432 0.189-6.545 3.188-6.644 6.339h-0.011v2.763h-3.699v5.419h3.699v14.527h5.574v-14.527h4.567l0.882-5.419h-5.447v-1.67c0-1.065 0.721-1.919 1.748-1.919z"></path>
        </symbol>
        <symbol id="icon-inst" viewBox="0 0 32 32">
            <path fill="#fff" style="fill: var(--color1, #fff)"
                  d="M22.57 1.156h-13.791c-4.489 0-8.14 3.652-8.14 8.14v13.792c0 4.489 3.652 8.14 8.14 8.14h13.792c4.488 0 8.14-3.652 8.14-8.14v-13.792c0-4.489-3.652-8.14-8.14-8.14zM15.675 24.414c-4.534 0-8.223-3.689-8.223-8.223s3.689-8.223 8.223-8.223c4.534 0 8.223 3.689 8.223 8.223s-3.689 8.223-8.223 8.223zM24.094 9.909c-1.34 0-2.43-1.090-2.43-2.43s1.090-2.43 2.43-2.43c1.34 0 2.43 1.090 2.43 2.43s-1.090 2.43-2.43 2.43z"></path>
        </symbol>
        <symbol id="icon-iphone" viewBox="0 0 32 32">
            <path fill="#f9f8fd" style="fill: var(--color6, #f9f8fd); stroke: var(--color7, #c4c4c4)" stroke="#c4c4c4"
                  stroke-linejoin="miter" stroke-linecap="butt" stroke-miterlimit="4" stroke-width="3.2"
                  d="M10.667 1.6h10.362c2.062 0 3.733 1.671 3.733 3.733v21.333c0 2.062-1.671 3.733-3.733 3.733h-10.362c-2.062 0-3.733-1.671-3.733-3.733v-21.333c0-2.062 1.671-3.733 3.733-3.733z"></path>
            <path fill="#c4c4c4" style="fill: var(--color7, #c4c4c4)"
                  d="M13.867 1.067h4.267c1.178 0 2.133 0.955 2.133 2.133s-0.955 2.133-2.133 2.133h-4.267c-1.178 0-2.133-0.955-2.133-2.133s0.955-2.133 2.133-2.133z"></path>
        </symbol>
        <symbol id="icon-logo" viewBox="0 0 53 20">
            <path fill-rule="evenodd" clip-rule="evenodd"
                  d="M19.3749 7.82301V16.9956C19.4682 17.8168 20.2483 19.4591 22.6222 19.4591H26.0375V17.6115H22.6222C22.137 17.6115 21.1665 17.3428 21.1665 16.2678V7.82301H25.1975V5.80742H21.1665V2.4386H19.3749V5.80742H16.9111V7.82301H19.3749Z"
                  fill="black"/>
            <path fill-rule="evenodd" clip-rule="evenodd"
                  d="M46.3378 7.82301V16.9956C46.4311 17.8168 47.2112 19.4591 49.5851 19.4591H53.0004V17.6115H49.5851C49.0999 17.6115 48.1294 17.3428 48.1294 16.2678V7.82301H52.1603V5.80742H48.1294V2.4386H46.3378V5.80742H43.874V7.82301H46.3378Z"
                  fill="black"/>
            <path fill-rule="evenodd" clip-rule="evenodd"
                  d="M0 0H2.28312L7.5579 9.21119L12.9364 0H15.2733L8.58137 11.4943H6.29825L0 0ZM8.5826 11.4943H6.30332V19.4591H8.5826V11.4943Z"
                  fill="#38BFF2"/>
            <path fill-rule="evenodd" clip-rule="evenodd"
                  d="M26.9629 0H29.246L34.5208 9.21119L39.8993 0H42.2362L35.5443 11.4943H33.2611L26.9629 0ZM35.5455 11.4943H33.2662V19.4591H35.5455V11.4943Z"
                  fill="#F15525"/>
        </symbol>
        <symbol id="icon-menu">
            <path fill="#f15525" style="fill: var(--color9, #f15525)"
                  d="M1.882 2.824h28.235c1.040 0 1.882 0.843 1.882 1.882s-0.843 1.882-1.882 1.882h-28.235c-1.040 0-1.882-0.843-1.882-1.882s0.843-1.882 1.882-1.882z"></path>
            <path fill="#f15525" style="fill: var(--color9, #f15525)"
                  d="M1.882 14.118h28.235c1.040 0 1.882 0.843 1.882 1.882s-0.843 1.882-1.882 1.882h-28.235c-1.040 0-1.882-0.843-1.882-1.882s0.843-1.882 1.882-1.882z"></path>
            <path fill="#f15525" style="fill: var(--color9, #f15525)"
                  d="M1.882 25.412h28.235c1.040 0 1.882 0.843 1.882 1.882s-0.843 1.882-1.882 1.882h-28.235c-1.040 0-1.882-0.843-1.882-1.882s0.843-1.882 1.882-1.882z"></path>
        </symbol>
        <symbol id="icon-triangle" viewBox="0 0 32 32">
            <path fill="#fff" style="fill: var(--color1, #fff)"
                  d="M26.33 14.026c1.512 0.882 1.512 3.067 0 3.949l-20.606 12.020c-1.524 0.889-3.437-0.21-3.437-1.974v-24.041c0-1.764 1.914-2.863 3.437-1.974l20.606 12.020z"></path>
        </symbol>
        <symbol id="icon-vk" viewBox="0 0 32 32">
            <path fill="#fff" style="fill: var(--color1, #fff)"
                  d="M15.759 24.732h1.785c0 0 0.539-0.059 0.814-0.355 0.253-0.272 0.245-0.782 0.245-0.782s-0.035-2.388 1.076-2.74c1.096-0.346 2.502 2.308 3.994 3.329 1.127 0.772 1.984 0.603 1.984 0.603l3.987-0.055c0 0 2.085-0.128 1.096-1.764-0.081-0.134-0.576-1.21-2.964-3.421-2.5-2.314-2.165-1.94 0.846-5.943 1.834-2.438 2.567-3.926 2.338-4.564-0.219-0.607-1.567-0.447-1.567-0.447l-4.489 0.028c0 0-0.333-0.045-0.58 0.102-0.241 0.144-0.396 0.481-0.396 0.481s-0.71 1.886-1.658 3.491c-1.999 3.385-2.798 3.564-3.125 3.354-0.76-0.49-0.57-1.968-0.57-3.018 0-3.281 0.499-4.649-0.972-5.003-0.488-0.118-0.847-0.195-2.095-0.208-1.602-0.017-2.957 0.005-3.725 0.38-0.511 0.249-0.905 0.805-0.665 0.837 0.297 0.040 0.969 0.181 1.325 0.665 0.46 0.624 0.444 2.026 0.444 2.026s0.264 3.862-0.617 4.342c-0.605 0.329-1.435-0.343-3.217-3.414-0.913-1.573-1.603-3.312-1.603-3.312s-0.133-0.325-0.37-0.499c-0.288-0.211-0.69-0.278-0.69-0.278l-4.266 0.028c0 0-0.64 0.018-0.875 0.295-0.209 0.247-0.017 0.758-0.017 0.758s3.34 7.793 7.121 11.72c3.467 3.6 7.405 3.364 7.405 3.364z"></path>
        </symbol>
        <symbol id="icon-yt" viewBox="0 0 32 32">
            <path fill="#fff" style="fill: var(--color1, #fff)"
                  d="M29.674 7.116c-1.081-1.285-3.077-1.809-6.889-1.809h-13.837c-3.899 0-5.929 0.558-7.006 1.926-1.050 1.334-1.050 3.3-1.050 6.020v5.185c0 5.27 1.246 7.946 8.056 7.946h13.837c3.306 0 5.138-0.462 6.323-1.597 1.215-1.163 1.734-3.062 1.734-6.349v-5.185c0-2.869-0.081-4.846-1.167-6.137zM20.119 16.561l-6.283 3.284c-0.14 0.073-0.294 0.11-0.447 0.11-0.174 0-0.347-0.047-0.501-0.14-0.289-0.175-0.466-0.488-0.466-0.826v-6.547c0-0.337 0.176-0.65 0.465-0.826s0.647-0.187 0.947-0.032l6.283 3.263c0.32 0.166 0.52 0.496 0.521 0.856s-0.199 0.691-0.519 0.858z"></path>
        </symbol>
        <symbol id="icon-burger" viewBox="0 0 58 32">
            <path fill="#fff" style="fill: var(--color1, #fff)" d="M0 0h58.182v2.909h-58.182v-2.909z"></path>
            <path fill="#fff" style="fill: var(--color1, #fff)" d="M0 14.545h58.182v2.909h-58.182v-2.909z"></path>
            <path fill="#fff" style="fill: var(--color1, #fff)" d="M0 29.091h58.182v2.909h-58.182v-2.909z"></path>
        </symbol>
        <symbol id="icon-close" viewBox="0 0 49 32">
            <path fill="#fff" style="fill: var(--color1, #fff)"
                  d="M2.683 27.077l42.635-24.615 1.231 2.132-42.635 24.615-1.231-2.132z"></path>
            <path fill="#fff" style="fill: var(--color1, #fff)"
                  d="M3.913 2.626l42.635 24.615-1.231 2.132-42.635-24.615 1.231-2.132z"></path>
        </symbol>

        <symbol id="icon-price1" viewBox="0 0 61 61">
            <path d="M60.363 3.17737V11.3678H0.635742V3.17737C0.635742 1.77365 1.77365 0.635742 3.17737 0.635742H57.8213C59.2251 0.635742 60.363 1.77365 60.363 3.17737Z"
                  fill="#38BFF2"/>
            <path d="M60.3643 11.3679V57.8226C60.3643 59.2268 59.227 60.3643 57.8227 60.3643H3.17737C1.77306 60.3643 0.635742 59.2268 0.635742 57.8226V11.3679H60.3643Z"
                  fill="white"/>
            <path d="M55.9163 28.8292V17.0863C55.9163 16.3844 55.3473 15.8154 54.6454 15.8154H6.35437C5.65251 15.8154 5.0835 16.3844 5.0835 17.0863V28.8292C5.0835 29.531 5.65251 30.1 6.35437 30.1H54.6455C55.3473 30.0999 55.9163 29.5309 55.9163 28.8292Z"
                  fill="#38BFF2"/>
            <path d="M28.3016 6.00183C28.3016 6.83534 27.626 7.51098 26.7925 7.51098H5.9574C5.12389 7.51098 4.44824 6.83534 4.44824 6.00183C4.44824 5.16832 5.12389 4.49268 5.9574 4.49268H26.7925C27.626 4.49268 28.3016 5.16832 28.3016 6.00183Z"
                  fill="white"/>
            <path d="M54.9973 7.55519C55.8553 7.55519 56.5508 6.85968 56.5508 6.00172C56.5508 5.14376 55.8553 4.44824 54.9973 4.44824C54.1394 4.44824 53.4438 5.14376 53.4438 6.00172C53.4438 6.85968 54.1394 7.55519 54.9973 7.55519Z"
                  fill="white"/>
            <path d="M48.7542 7.55519C49.6121 7.55519 50.3076 6.85968 50.3076 6.00172C50.3076 5.14376 49.6121 4.44824 48.7542 4.44824C47.8962 4.44824 47.2007 5.14376 47.2007 6.00172C47.2007 6.85968 47.8962 7.55519 48.7542 7.55519Z"
                  fill="white"/>
            <path d="M42.5115 7.55519C43.3694 7.55519 44.065 6.85968 44.065 6.00172C44.065 5.14376 43.3694 4.44824 42.5115 4.44824C41.6535 4.44824 40.958 5.14376 40.958 6.00172C40.958 6.85968 41.6535 7.55519 42.5115 7.55519Z"
                  fill="white"/>
            <path d="M37.4894 43.9776V35.8185C37.4894 35.1166 36.9204 34.5476 36.2185 34.5476H24.7811C24.0793 34.5476 23.5103 35.1166 23.5103 35.8185V43.9776C23.5103 44.6794 24.0793 45.2485 24.7811 45.2485H36.2185C36.9204 45.2483 37.4894 44.6794 37.4894 43.9776Z"
                  fill="#38BFF2"/>
            <path d="M19.0625 43.9776V35.8185C19.0625 35.1166 18.4935 34.5476 17.7916 34.5476H6.35437C5.65251 34.5476 5.0835 35.1166 5.0835 35.8185V43.9776C5.0835 44.6794 5.65251 45.2485 6.35437 45.2485H17.7917C18.4936 45.2483 19.0625 44.6794 19.0625 43.9776Z"
                  fill="#38BFF2"/>
            <path d="M55.9166 43.9776V35.8185C55.9166 35.1166 55.3476 34.5476 54.6458 34.5476H43.2084C42.5065 34.5476 41.9375 35.1166 41.9375 35.8185V43.9776C41.9375 44.6794 42.5065 45.2485 43.2084 45.2485H54.6458C55.3476 45.2483 55.9166 44.6794 55.9166 43.9776Z"
                  fill="#38BFF2"/>
            <path d="M60.9986 3.17749C60.9986 1.42577 59.5733 0.000488281 57.8216 0.000488281H3.17749C1.42577 0.000488281 0.000488281 1.42577 0.000488281 3.17749V57.8226C0.000488281 59.5744 1.42577 60.9996 3.17749 60.9996H57.8227C59.5744 60.9996 60.9997 59.5744 60.9997 57.8226C60.9998 57.2288 60.9987 10.1758 60.9986 3.17749ZM1.27136 3.17749C1.27136 2.12631 2.12643 1.27124 3.17761 1.27124H57.8215C58.8726 1.27124 59.7277 2.12631 59.7277 3.17749V10.7323H1.27136V3.17749ZM57.8228 59.729H3.17749C2.12631 59.729 1.27124 58.8739 1.27124 57.8228V12.0032H59.7289V57.8228C59.729 58.8739 58.874 59.729 57.8228 59.729Z"
                  fill="#1A2E35"/>
            <path d="M54.6455 15.1802H6.35449C5.30331 15.1802 4.44824 16.0352 4.44824 17.0864V28.829C4.44824 29.8802 5.30331 30.7353 6.35449 30.7353H54.6456C55.6968 30.7353 56.5519 29.8802 56.5519 28.829V17.0864C56.5518 16.0352 55.6967 15.1802 54.6455 15.1802ZM55.281 28.829C55.281 29.1797 54.9962 29.4644 54.6456 29.4644H6.35449C6.00386 29.4644 5.71912 29.1796 5.71912 28.829V17.0864C5.71912 16.7358 6.00398 16.451 6.35449 16.451H54.6456C54.9963 16.451 55.281 16.7359 55.281 17.0864V28.829Z"
                  fill="#1A2E35"/>
            <path d="M26.7927 3.85767H5.95752C4.77481 3.85767 3.81299 4.81949 3.81299 6.0022C3.81299 7.18491 4.77481 8.14673 5.95752 8.14673H26.7926C27.9753 8.14673 28.9371 7.18491 28.9371 6.0022C28.9371 4.81949 27.9754 3.85767 26.7927 3.85767ZM26.7927 6.87586H5.95752C5.47595 6.87586 5.08386 6.48365 5.08386 6.0022C5.08386 5.52075 5.47607 5.12854 5.95752 5.12854H26.7926C27.2742 5.12854 27.6663 5.52075 27.6663 6.0022C27.6663 6.48365 27.2742 6.87586 26.7927 6.87586Z"
                  fill="#1A2E35"/>
            <path d="M54.9967 3.81299C53.7898 3.81299 52.8081 4.7953 52.8081 6.0022C52.8081 7.20909 53.7898 8.19081 54.9967 8.19081C56.2036 8.19081 57.1859 7.20921 57.1859 6.0022C57.1859 4.79518 56.2036 3.81299 54.9967 3.81299ZM54.9967 6.91982C54.4904 6.91982 54.079 6.50843 54.079 6.00208C54.079 5.49573 54.4904 5.08374 54.9967 5.08374C55.5031 5.08374 55.9151 5.49573 55.9151 6.00208C55.9151 6.50843 55.5031 6.91982 54.9967 6.91982Z"
                  fill="#1A2E35"/>
            <path d="M48.7546 3.81299C47.5477 3.81299 46.5654 4.7953 46.5654 6.0022C46.5654 7.20909 47.5477 8.19081 48.7546 8.19081C49.9615 8.19081 50.9432 7.20921 50.9432 6.0022C50.9432 4.79518 49.9615 3.81299 48.7546 3.81299ZM48.7546 6.91982C48.2483 6.91982 47.8363 6.50843 47.8363 6.00208C47.8363 5.49573 48.2483 5.08374 48.7546 5.08374C49.261 5.08374 49.6724 5.49573 49.6724 6.00208C49.6724 6.50843 49.261 6.91982 48.7546 6.91982Z"
                  fill="#1A2E35"/>
            <path d="M42.5115 3.81299C41.3046 3.81299 40.3223 4.7953 40.3223 6.0022C40.3223 7.20909 41.3046 8.19081 42.5115 8.19081C43.7184 8.19081 44.7001 7.20921 44.7001 6.0022C44.7001 4.79518 43.7184 3.81299 42.5115 3.81299ZM42.5115 6.91982C42.0051 6.91982 41.5931 6.50843 41.5931 6.00208C41.5931 5.49573 42.0051 5.08374 42.5115 5.08374C43.0178 5.08374 43.4292 5.49573 43.4292 6.00208C43.4292 6.50843 43.0177 6.91982 42.5115 6.91982Z"
                  fill="#1A2E35"/>
            <path d="M19.0626 49.0605H5.08362C4.73239 49.0605 4.44824 49.3447 4.44824 49.6959C4.44824 50.0472 4.73239 50.3313 5.08362 50.3313H19.0626C19.4139 50.3313 19.698 50.0472 19.698 49.6959C19.698 49.3447 19.4139 49.0605 19.0626 49.0605Z"
                  fill="#1A2E35"/>
            <path d="M19.0626 55.2812H5.08362C4.73239 55.2812 4.44824 55.5654 4.44824 55.9166C4.44824 56.2678 4.73239 56.552 5.08362 56.552H19.0626C19.4139 56.552 19.698 56.2678 19.698 55.9166C19.698 55.5654 19.4139 55.2812 19.0626 55.2812Z"
                  fill="#1A2E35"/>
            <path d="M19.0626 52.1711H5.08362C4.73239 52.1711 4.44824 52.4553 4.44824 52.8065C4.44824 53.1577 4.73239 53.4419 5.08362 53.4419H19.0626C19.4139 53.4419 19.698 53.1577 19.698 52.8065C19.698 52.4553 19.4139 52.1711 19.0626 52.1711Z"
                  fill="#1A2E35"/>
            <path d="M37.4894 49.0605H23.5104C23.1591 49.0605 22.875 49.3447 22.875 49.6959C22.875 50.0472 23.1591 50.3313 23.5104 50.3313H37.4894C37.8406 50.3313 38.1248 50.0472 38.1248 49.6959C38.1248 49.3447 37.8406 49.0605 37.4894 49.0605Z"
                  fill="#1A2E35"/>
            <path d="M37.4894 55.2812H23.5104C23.1591 55.2812 22.875 55.5654 22.875 55.9166C22.875 56.2678 23.1591 56.552 23.5104 56.552H37.4894C37.8406 56.552 38.1248 56.2678 38.1248 55.9166C38.1248 55.5654 37.8406 55.2812 37.4894 55.2812Z"
                  fill="#1A2E35"/>
            <path d="M37.4894 52.1711H23.5104C23.1591 52.1711 22.875 52.4553 22.875 52.8065C22.875 53.1577 23.1591 53.4419 23.5104 53.4419H37.4894C37.8406 53.4419 38.1248 53.1577 38.1248 52.8065C38.1248 52.4553 37.8406 52.1711 37.4894 52.1711Z"
                  fill="#1A2E35"/>
            <path d="M55.9166 49.0605H41.9376C41.5864 49.0605 41.3022 49.3447 41.3022 49.6959C41.3022 50.0472 41.5864 50.3313 41.9376 50.3313H55.9166C56.2679 50.3313 56.552 50.0472 56.552 49.6959C56.552 49.3447 56.2679 49.0605 55.9166 49.0605Z"
                  fill="#1A2E35"/>
            <path d="M55.9166 55.2812H41.9376C41.5864 55.2812 41.3022 55.5654 41.3022 55.9166C41.3022 56.2678 41.5864 56.552 41.9376 56.552H55.9166C56.2679 56.552 56.552 56.2678 56.552 55.9166C56.552 55.5654 56.2679 55.2812 55.9166 55.2812Z"
                  fill="#1A2E35"/>
            <path d="M55.9166 52.1711H41.9376C41.5864 52.1711 41.3022 52.4553 41.3022 52.8065C41.3022 53.1577 41.5864 53.4419 41.9376 53.4419H55.9166C56.2679 53.4419 56.552 53.1577 56.552 52.8065C56.552 52.4553 56.2679 52.1711 55.9166 52.1711Z"
                  fill="#1A2E35"/>
            <path d="M36.2186 33.9124H24.7813C23.7301 33.9124 22.875 34.7674 22.875 35.8186V43.9778C22.875 45.029 23.7301 45.8841 24.7813 45.8841H36.2186C37.2698 45.8841 38.1249 45.029 38.1249 43.9778V35.8186C38.1249 34.7674 37.2698 33.9124 36.2186 33.9124ZM36.8541 43.9778C36.8541 44.3285 36.5693 44.6132 36.2188 44.6132H24.7814C24.4307 44.6132 24.146 44.3283 24.146 43.9778V35.8186C24.146 35.468 24.4309 35.1832 24.7814 35.1832H36.2188C36.5694 35.1832 36.8541 35.4681 36.8541 35.8186V43.9778Z"
                  fill="#1A2E35"/>
            <path d="M17.7919 33.9124H6.35449C5.30331 33.9124 4.44824 34.7674 4.44824 35.8186V43.9778C4.44824 45.029 5.30331 45.8841 6.35449 45.8841H17.7919C18.8431 45.8841 19.6981 45.029 19.6981 43.9778V35.8186C19.698 34.7674 18.8429 33.9124 17.7919 33.9124ZM18.4272 43.9778C18.4272 44.3285 18.1424 44.6132 17.7919 44.6132H6.35449C6.00386 44.6132 5.71912 44.3283 5.71912 43.9778V35.8186C5.71912 35.468 6.00398 35.1832 6.35449 35.1832H17.7919C18.1425 35.1832 18.4272 35.4681 18.4272 35.8186V43.9778Z"
                  fill="#1A2E35"/>
            <path d="M54.6454 33.9124H43.208C42.1568 33.9124 41.3018 34.7674 41.3018 35.8186V43.9778C41.3018 45.029 42.1568 45.8841 43.208 45.8841H54.6454C55.6966 45.8841 56.5516 45.029 56.5516 43.9778V35.8186C56.5516 34.7674 55.6966 33.9124 54.6454 33.9124ZM55.2809 43.9778C55.2809 44.3285 54.996 44.6132 54.6455 44.6132H43.2081C42.8575 44.6132 42.5728 44.3283 42.5728 43.9778V35.8186C42.5728 35.468 42.8576 35.1832 43.2081 35.1832H54.6455C54.9961 35.1832 55.2809 35.4681 55.2809 35.8186V43.9778Z"
                  fill="#1A2E35"/>
        </symbol>

        <symbol id="icon-price2" viewBox="0 0 59 59">
            <path d="M49.9155 49.922C61.1942 38.6433 61.1942 20.3567 49.9155 9.07798C38.6367 -2.20079 20.3502 -2.20078 9.07143 9.07798C-2.20734 20.3568 -2.20734 38.6432 9.07143 49.922C20.3502 61.2008 38.6367 61.2008 49.9155 49.922Z"
                  fill="#38BFF2"/>
            <path d="M29.4998 52.2396C42.0585 52.2396 52.2393 42.0588 52.2393 29.5C52.2393 16.9413 42.0585 6.7605 29.4998 6.7605C16.9411 6.7605 6.76025 16.9413 6.76025 29.5C6.76025 42.0588 16.9411 52.2396 29.4998 52.2396Z"
                  fill="white"/>
            <path d="M29.5 0C13.2336 0 0 13.2336 0 29.5C0 45.7664 13.2336 59 29.5 59C45.7664 59 59 45.7664 59 29.5C59 13.2336 45.7664 0 29.5 0ZM29.5 57.7708C13.9116 57.7708 1.22921 45.0884 1.22921 29.5C1.22921 13.9116 13.9116 1.22921 29.5 1.22921C45.0884 1.22921 57.7708 13.9116 57.7708 29.5C57.7708 45.0884 45.0884 57.7708 29.5 57.7708Z"
                  fill="#1A2E35"/>
            <path d="M29.5002 6.14575C16.6228 6.14575 6.146 16.6225 6.146 29.5C6.146 42.3774 16.6228 52.8542 29.5002 52.8542C42.3776 52.8542 52.8544 42.3774 52.8544 29.5C52.8544 16.6225 42.3776 6.14575 29.5002 6.14575ZM29.5002 51.625C17.3003 51.625 7.3752 41.6998 7.3752 29.5C7.3752 17.3001 17.3003 7.37496 29.5002 7.37496C41.7001 7.37496 51.6252 17.3001 51.6252 29.5C51.6252 41.6998 41.7001 51.625 29.5002 51.625Z"
                  fill="#1A2E35"/>
            <path d="M31.9606 16.2147H23.787C23.7766 16.2142 23.7678 16.2087 23.7572 16.2087C23.4179 16.2087 23.1427 16.4839 23.1427 16.8233V16.8293V28.5813H20.8558C20.5164 28.5813 20.2412 28.8565 20.2412 29.1959C20.2412 29.5352 20.5164 29.8104 20.8558 29.8104H23.1427V32.412H20.8558C20.5164 32.412 20.2412 32.6871 20.2412 33.0265C20.2412 33.3659 20.5164 33.641 20.8558 33.641H23.1427V42.1765C23.1427 42.5158 23.4179 42.791 23.7572 42.791C24.0966 42.791 24.3718 42.5158 24.3718 42.1765V33.641H35.4622C35.8015 33.641 36.0767 33.3659 36.0767 33.0265C36.0767 32.6871 35.8015 32.412 35.4622 32.412H24.3719V29.8104H25.4079H31.5303C35.2994 29.8104 38.4653 27.0646 38.7375 23.5593C38.7375 23.559 38.7375 23.559 38.7375 23.559C39.0536 19.4844 35.8367 16.2147 31.9606 16.2147ZM37.512 23.4642V23.4639C37.2893 26.3337 34.6618 28.5813 31.5303 28.5813H25.4079H24.3719V17.4438H31.9606C35.1346 17.4439 37.7717 20.1178 37.512 23.4642Z"
                  fill="#1A2E35"/>
        </symbol>

        <symbol id="icon-price3" viewBox="0 0 49 56">
            <path d="M32.9932 3.4835V52.2523C32.9932 53.8556 31.6778 55.1553 30.0551 55.1553H3.52557C1.90285 55.1553 0.587402 53.8556 0.587402 52.2523V3.4835C0.587402 1.88024 1.90285 0.580566 3.52557 0.580566H30.0551C31.6778 0.580676 32.9932 1.88035 32.9932 3.4835Z"
                  fill="white"/>
            <path d="M24.964 0.581055V2.89881C24.964 4.18149 23.9116 5.22119 22.6135 5.22119H10.9667C9.66848 5.22119 8.61621 4.18138 8.61621 2.89881V0.581055H24.964Z"
                  fill="#38BFF2"/>
            <path d="M47.7933 19.2003V37.6973C47.7933 38.9799 46.741 40.0195 45.4429 40.0195H16.79V16.8779H45.4428C46.741 16.8779 47.7933 17.9177 47.7933 19.2003Z"
                  fill="#38BFF2"/>
            <path d="M16.79 21.624H47.7933V27.3779H16.79V21.624Z" fill="#D7E9FF"/>
            <path d="M9.04316 51.0908C8.71864 51.0908 8.45557 51.3506 8.45557 51.6716C8.45557 51.9927 8.71864 52.2524 9.04316 52.2524H24.537C24.8616 52.2524 25.1246 51.9926 25.1246 51.6716C25.1246 51.3505 24.8616 51.0908 24.537 51.0908H9.04316Z"
                  fill="#1A2E35"/>
            <path d="M21.0524 3.48193H22.1017C22.4262 3.48193 22.6893 3.22212 22.6893 2.90112C22.6893 2.58013 22.4262 2.32031 22.1017 2.32031H21.0524C20.7279 2.32031 20.4648 2.58013 20.4648 2.90112C20.4648 3.22212 20.7279 3.48193 21.0524 3.48193Z"
                  fill="#1A2E35"/>
            <path d="M11.4787 3.48193H18.2985C18.623 3.48193 18.886 3.22212 18.886 2.90112C18.886 2.58013 18.623 2.32031 18.2985 2.32031H11.4787C11.1542 2.32031 10.8911 2.58013 10.8911 2.90112C10.8911 3.22212 11.1542 3.48193 11.4787 3.48193Z"
                  fill="#1A2E35"/>
            <path d="M45.4425 16.297H33.5809V3.48345C33.5809 1.56255 31.9994 0 30.0552 0C24.2773 0 9.30726 0 3.52576 0C1.58153 0 0 1.56255 0 3.48345V52.2519C0 54.1728 1.58153 55.7354 3.52576 55.7354H30.055C31.9993 55.7354 33.5808 54.1728 33.5808 52.2519V40.5997H45.4424C47.0624 40.5997 48.3806 39.2973 48.3806 37.6967C48.3806 30.9466 48.3806 25.8474 48.3806 19.1999C48.3807 17.5993 47.0624 16.297 45.4425 16.297ZM47.2054 19.1999V21.0432H17.3774V17.4582H45.4425C46.4146 17.4582 47.2054 18.2395 47.2054 19.1999ZM47.2054 26.7973H17.3774V22.2042H47.2054V26.7973ZM24.3765 1.16119V2.8984C24.3765 3.85886 23.5858 4.64013 22.6136 4.64013H10.9669C9.99482 4.64013 9.20406 3.85886 9.20406 2.8984V1.16119H24.3765ZM32.4056 52.252C32.4056 53.5328 31.3511 54.5743 30.0552 54.5743H3.52565C2.22957 54.5743 1.17518 53.5328 1.17518 52.252V3.48345C1.17518 2.2027 2.22968 1.16119 3.52565 1.16119H8.02866V2.8984C8.02866 4.49901 9.34678 5.80132 10.9668 5.80132H22.6135C24.2336 5.80132 25.5517 4.49901 25.5517 2.8984V1.16119H30.055C31.3511 1.16119 32.4055 2.2027 32.4055 3.48345V16.297H17.3773V13.6782C17.3773 13.3572 17.1143 13.0977 16.7897 13.0977C16.4652 13.0977 16.2021 13.3573 16.2021 13.6782V43.2122C16.2021 43.5331 16.4652 43.7927 16.7897 43.7927C17.1143 43.7927 17.3773 43.533 17.3773 43.2122V40.5995H32.4055V52.252H32.4056ZM45.4425 39.4385H17.3774V32.3422H36.8051C37.1296 32.3422 37.3927 32.0825 37.3927 31.7617C37.3927 31.4407 37.1296 31.1811 36.8051 31.1811H17.3774V27.9585H47.2054V37.6967C47.2054 38.6572 46.4146 39.4385 45.4425 39.4385Z"
                  fill="#1A2E35"/>
            <path d="M36.8051 35.0547H35.1218C34.7972 35.0547 34.5342 35.3145 34.5342 35.6355C34.5342 35.9566 34.7972 36.2163 35.1218 36.2163H36.8051C37.1296 36.2163 37.3927 35.9565 37.3927 35.6355C37.3927 35.3145 37.1296 35.0547 36.8051 35.0547Z"
                  fill="#1A2E35"/>
            <path d="M31.9932 35.0547H30.3098C29.9852 35.0547 29.7222 35.3145 29.7222 35.6355C29.7222 35.9566 29.9852 36.2163 30.3098 36.2163H31.9932C32.3177 36.2163 32.5807 35.9565 32.5807 35.6355C32.5807 35.3145 32.3177 35.0547 31.9932 35.0547Z"
                  fill="#1A2E35"/>
            <path d="M27.1811 35.0547H25.4977C25.1732 35.0547 24.9102 35.3145 24.9102 35.6355C24.9102 35.9566 25.1732 36.2163 25.4977 36.2163H27.1811C27.5056 36.2163 27.7687 35.9565 27.7687 35.6355C27.7688 35.3145 27.5056 35.0547 27.1811 35.0547Z"
                  fill="#1A2E35"/>
            <path d="M22.3686 35.0547H20.6852C20.3607 35.0547 20.0977 35.3145 20.0977 35.6355C20.0977 35.9566 20.3607 36.2163 20.6852 36.2163H22.3686C22.6932 36.2163 22.9562 35.9565 22.9562 35.6355C22.9563 35.3145 22.6932 35.0547 22.3686 35.0547Z"
                  fill="#1A2E35"/>
        </symbol>
        <symbol id="icon-logo_footer" viewBox="0 0 88 32">
            <path fill-rule="evenodd" clip-rule="evenodd"
                  d="M31.8614 12.8645V27.9489C32.0149 29.2992 33.2977 32 37.2016 32H42.8179V28.9617H37.2016C36.4036 28.9617 34.8077 28.5197 34.8077 26.7519V12.8645H41.4367V9.5499H34.8077V4.01025H31.8614V9.5499H27.8101V12.8645H31.8614Z"
                  fill="#22253B"/>
            <path fill-rule="evenodd" clip-rule="evenodd"
                  d="M76.2008 12.8645V27.9489C76.3542 29.2992 77.6371 32 81.5409 32H87.1573V28.9617H81.5409C80.743 28.9617 79.1471 28.5197 79.1471 26.7519V12.8645H85.776V9.5499H79.1471V4.01025H76.2008V9.5499H72.1494V12.8645H76.2008Z"
                  fill="#22253B"/>
            <path fill-rule="evenodd" clip-rule="evenodd"
                  d="M0 0H3.75452L12.4288 15.1475L21.2736 0H25.1164L14.112 18.9018H14.1137V31.9997H10.3655V18.9021H10.3573L0 0Z"
                  fill="#38BFF2"/>
            <path fill-rule="evenodd" clip-rule="evenodd"
                  d="M44.3398 0H48.0944L56.7686 15.1475L65.6134 0H69.4563L58.4518 18.9018H58.454V31.9997H54.7058V18.9021H54.6971L44.3398 0Z"
                  fill="#F15525"/>
        </symbol>
    </defs>
</svg>
