<svg xmlns="http://www.w3.org/2000/svg" aria-hidden="true" style="position: absolute; width: 0; height: 0; overflow: hidden;"><defs><symbol id="icon-ad" viewBox="0 0 32 32"><path fill="#fff" d="M31.505 15.745a4.433 4.433 0 0 1-4.436 4.436v-8.885a4.44 4.44 0 0 1 4.436 4.449z" style="fill: var(--color1, #fff)"/><path fill="#fff" d="M25.948 2.17c-.619 0-1.121.502-1.121 1.121v24.898a1.121 1.121 0 0 0 2.242 0V3.291c0-.619-.502-1.121-1.121-1.121z" style="fill: var(--color1, #fff)"/><path fill="#38bff2" d="M24.829 4.098V27.38c-2.493-4.521-8.537-7.169-13.438-7.412V11.51c4.901-.243 10.945-2.891 13.438-7.412z" style="fill: var(--color2, #38bff2)"/><path fill="#fff" d="M11.39 11.509v8.461a.908.908 0 0 1-.908.908H3.445a.909.909 0 0 1-.908-.908v-8.461c0-.501.406-.908.908-.908h7.037c.501 0 .908.406.908.908z" style="fill: var(--color1, #fff)"/><path fill="#38bff2" d="M1.329 12.605h1.208v6.269H1.329a.834.834 0 0 1-.835-.835V13.44c0-.462.373-.835.835-.835z" style="fill: var(--color2, #38bff2)"/><path fill="#fff" d="M8.97 9.721v.879H4.959v-.879c0-.481.39-.871.871-.871h2.269c.481 0 .871.39.871.871z" style="fill: var(--color1, #fff)"/><path fill="#38bff2" d="m6.467 29.401 2.62-8.523H4.84v8.344c0 .336.272.608.608.608h.438a.607.607 0 0 0 .581-.429z" style="fill: var(--color2, #38bff2)"/><path fill="#1a2e35" d="M31.835 15.746a4.776 4.776 0 0 0-4.436-4.762V3.291a1.452 1.452 0 0 0-2.901 0v.721c-2.427 4.312-8.218 6.832-12.834 7.151a1.236 1.236 0 0 0-1.182-.891H9.3v-.55c0-.662-.539-1.201-1.201-1.201H5.83c-.662 0-1.201.539-1.201 1.201v.55H3.445a1.24 1.24 0 0 0-1.238 1.238v.766h-.878c-.642 0-1.165.523-1.165 1.165v4.599c0 .642.523 1.164 1.165 1.164h.878v.767a1.24 1.24 0 0 0 1.238 1.238H4.51v8.014a.94.94 0 0 0 .938.938h.438a.933.933 0 0 0 .897-.662l2.548-8.29h1.151c.561 0 1.032-.378 1.182-.892 4.616.319 10.407 2.839 12.834 7.151v.721a1.452 1.452 0 0 0 2.901 0v-7.693a4.769 4.769 0 0 0 4.436-4.749zM5.288 9.721c0-.299.243-.542.542-.542h2.269c.299 0 .542.243.542.542v.549H5.289v-.549zM1.33 18.544a.506.506 0 0 1-.505-.504v-4.599c0-.278.227-.505.505-.505h.878v5.609H1.33zm4.822 10.76a.277.277 0 0 1-.266.196h-.438a.279.279 0 0 1-.278-.278v-8.015h3.47l-2.489 8.096zm4.908-9.334a.578.578 0 0 1-.578.578H3.445a.578.578 0 0 1-.578-.578v-8.461c0-.319.259-.578.578-.578h7.037c.319 0 .578.259.578.578v8.461zm.661-.312v-7.837c4.461-.313 9.985-2.62 12.777-6.575v20.986c-2.792-3.955-8.315-6.262-12.777-6.575zm15.018 8.53a.792.792 0 0 1-1.582 0c.002-30.622 0-22.667 0-24.898a.792.792 0 0 1 1.582 0v24.898zm.66-8.349V11.64a4.12 4.12 0 0 1 3.776 4.106 4.111 4.111 0 0 1-3.776 4.093z" style="fill: var(--color3, #1a2e35)"/><path fill="#1a2e35" d="M9.858 11.916H4.069a.33.33 0 0 0 0 .66h5.789a.33.33 0 0 0 0-.66zM9.858 13.663H4.069a.33.33 0 0 0 0 .66h5.789a.33.33 0 0 0 0-.66zM9.858 15.41H4.069a.33.33 0 0 0 0 .66h5.789a.33.33 0 0 0 0-.66zM9.858 17.157H4.069a.33.33 0 0 0 0 .66h5.789a.33.33 0 0 0 0-.66zM9.858 18.904H4.069a.33.33 0 0 0 0 .66h5.789a.33.33 0 0 0 0-.66z" style="fill: var(--color3, #1a2e35)"/></symbol><symbol id="icon-ad-mob" viewBox="0 0 32 32"><path d="M31.835 15.746a4.776 4.776 0 0 0-4.436-4.762V3.291a1.452 1.452 0 0 0-2.901 0v.721c-2.427 4.312-8.218 6.832-12.834 7.151a1.236 1.236 0 0 0-1.182-.891H9.3v-.55c0-.662-.539-1.201-1.201-1.201H5.83c-.662 0-1.201.539-1.201 1.201v.55H3.445a1.24 1.24 0 0 0-1.238 1.238v.766h-.878c-.642 0-1.165.523-1.165 1.165v4.599c0 .642.523 1.164 1.165 1.164h.878v.767a1.24 1.24 0 0 0 1.238 1.238H4.51v8.014a.94.94 0 0 0 .938.938h.438a.933.933 0 0 0 .897-.662l2.548-8.29h1.151c.561 0 1.032-.378 1.182-.892 4.616.319 10.407 2.839 12.834 7.151v.721a1.452 1.452 0 0 0 2.901 0v-7.693a4.769 4.769 0 0 0 4.436-4.749zM5.288 9.721c0-.299.243-.542.542-.542h2.269c.299 0 .542.243.542.542v.549H5.289v-.549zM1.33 18.544a.506.506 0 0 1-.505-.505V13.44c0-.278.227-.505.505-.505h.878v5.609H1.33zm4.822 10.76a.277.277 0 0 1-.266.196h-.438a.279.279 0 0 1-.278-.278v-8.014h3.47l-2.489 8.096zm4.908-9.334a.578.578 0 0 1-.578.578H3.445a.578.578 0 0 1-.578-.578v-8.461c0-.319.259-.578.578-.578h7.037c.319 0 .578.259.578.578v8.461zm.661-.312v-7.837c4.461-.313 9.985-2.62 12.777-6.575v20.986c-2.792-3.955-8.315-6.262-12.777-6.575zm15.018 8.53a.792.792 0 0 1-1.582 0c.002-30.622 0-22.667 0-24.898a.792.792 0 0 1 1.582 0v24.898zm.66-8.349V11.64a4.12 4.12 0 0 1 3.776 4.106 4.111 4.111 0 0 1-3.776 4.093z"/></symbol><symbol id="icon-arrow" viewBox="0 0 32 32"><path fill="none" stroke="#fff" stroke-width="2.909" d="m16.229 4.904 11.449 10.704-11.449 10.704M27.738 15.614H2.776" style="stroke: var(--color1, #fff)"/></symbol><symbol id="icon-arrow-btm" viewBox="0 0 32 32"><path d="M18 3a2 2 0 1 0-4 0h4zm-3.414 27.414a2 2 0 0 0 2.828 0l12.728-12.728a2 2 0 1 0-2.828-2.828L16 26.172 4.686 14.858a2 2 0 1 0-2.828 2.828l12.728 12.728zM14 3v26h4V3h-4z"/></symbol><symbol id="icon-arrow-top" viewBox="0 0 32 32"><path fill="#fff" d="M.559 28.613a2 2 0 1 0 2.883 2.773L.559 28.613zM30.937 1.961A2 2 0 0 0 28.899 0L10.902.348a2 2 0 0 0 .077 3.999l15.997-.309.309 15.997a2 2 0 0 0 3.999-.077l-.348-17.997zM3.441 31.387l26.938-28L27.497.614l-26.938 28 2.883 2.773z" style="fill: var(--color1, #fff)"/></symbol><symbol id="icon-cros" viewBox="0 0 32 32"><path fill="#bcbcbc" d="M0 29.083 29.083 0l2.077 2.077L2.077 31.16 0 29.083z" style="fill: var(--color4, #bcbcbc)"/><path fill="#bcbcbc" d="M29.083 31.161 0 2.078 2.077.001 31.16 29.084l-2.077 2.077z" style="fill: var(--color4, #bcbcbc)"/></symbol><symbol id="icon-f1" viewBox="0 0 32 32"><path fill="#fff" d="M31.505 6.456v23.597a1.45 1.45 0 0 1-1.455 1.452H1.949a1.45 1.45 0 0 1-1.455-1.452V6.456h31.01z" style="fill: var(--color1, #fff)"/><path fill="#38bff2" d="M31.505 1.95v4.506H.495V1.95c0-.805.65-1.455 1.455-1.455h28.101c.805 0 1.455.65 1.455 1.455z" style="fill: var(--color2, #38bff2)"/><path fill="#d7e9ff" d="M4.479 3.474a.761.761 0 0 1-1.522 0c0-.42.341-.758.761-.758s.761.338.761.758zM7.695 3.474a.761.761 0 0 1-1.522 0c0-.42.341-.758.761-.758s.761.338.761.758zM10.912 3.474a.761.761 0 0 1-1.522 0c0-.42.341-.758.761-.758s.761.338.761.758zM29.043 3.473c0 .42-.343.76-.764.76h-8.052a.759.759 0 1 1 0-1.516h8.052c.42 0 .764.335.764.756z" style="fill: var(--color5, #d7e9ff)"/><path fill="#1a2e35" d="M30.05.165H1.949C.965.165.164.966.164 1.95v28.104c0 .982.801 1.781 1.785 1.781H30.05c.984 0 1.785-.799 1.785-1.781V1.95c0-.984-.801-1.785-1.785-1.785zM.825 1.95c0-.62.505-1.125 1.125-1.125h28.101c.62 0 1.125.505 1.125 1.125v4.176H.825V1.95zm30.35 28.104c0 .618-.505 1.122-1.125 1.122H1.949c-.62 0-1.125-.503-1.125-1.122V6.786h30.351v23.268z" style="fill: var(--color3, #1a2e35)"/><path fill="#1a2e35" d="M4.466 19.317c.64 0 1.161.515 1.161 1.148v2.878c0 1.004.811 1.82 1.807 1.82a.33.33 0 0 0 0-.66 1.156 1.156 0 0 1-1.148-1.161v-2.878c0-.615-.311-1.16-.785-1.486a1.82 1.82 0 0 0 .773-1.482v-2.878c0-.64.515-1.161 1.148-1.161a.33.33 0 0 0 0-.66c-.997 0-1.808.817-1.808 1.82v2.878c0 .63-.517 1.15-1.153 1.161-.434.007-.428.66.005.66zM25.713 20.465v2.878c0 .64-.515 1.161-1.148 1.161a.33.33 0 0 0 0 .66c.996 0 1.807-.817 1.807-1.82v-2.878c0-.633.521-1.148 1.161-1.148.433 0 .438-.653.005-.66a1.171 1.171 0 0 1-1.153-1.161v-2.878c0-1.004-.811-1.82-1.808-1.82a.33.33 0 0 0 0 .66c.633 0 1.148.521 1.148 1.161v2.878c0 .608.306 1.15.773 1.482a1.804 1.804 0 0 0-.785 1.486zM13.785 24.716a.33.33 0 0 0 .427-.189l4.192-10.855a.33.33 0 1 0-.616-.238l-4.192 10.855a.33.33 0 0 0 .189.427zM22.62 18.986l-3.803 2.57a.33.33 0 1 0 .369.547l4.207-2.843a.33.33 0 0 0 .001-.546l-4.207-2.854a.33.33 0 0 0-.37.546l3.804 2.581zM8.606 19.259l4.167 2.843a.33.33 0 1 0 .371-.545l-3.768-2.571 3.769-2.581a.33.33 0 1 0-.373-.545l-4.167 2.854a.33.33 0 0 0 .001.545zM3.718 2.386c-.601 0-1.091.488-1.091 1.088a1.092 1.092 0 0 0 2.182 0c0-.6-.489-1.088-1.091-1.088zm0 1.519a.43.43 0 1 1 0-.859.43.43 0 1 1 0 .859zM6.935 2.386c-.601 0-1.091.488-1.091 1.088a1.092 1.092 0 0 0 2.181 0c0-.6-.489-1.088-1.09-1.088zm0 1.519a.43.43 0 1 1 0-.859.43.43 0 1 1 0 .859zM10.152 2.386a1.09 1.09 0 1 0-.001 2.18 1.09 1.09 0 0 0 .001-2.18zm0 1.519a.43.43 0 1 1 0-.859.43.43 0 1 1 0 .859zM28.279 2.388h-8.052c-.601 0-1.09.487-1.09 1.085 0 .601.489 1.09 1.09 1.09h8.052c.603 0 1.093-.489 1.093-1.09a1.09 1.09 0 0 0-1.093-1.085zm0 1.515h-8.052a.43.43 0 0 1-.43-.43c0-.239.189-.426.43-.426h8.052a.43.43 0 0 1 .434.426c0 .237-.195.43-.434.43z" style="fill: var(--color3, #1a2e35)"/></symbol><symbol id="icon-f2" viewBox="0 0 32 32"><path fill="#38bff2" d="M20.61 16a4.61 4.61 0 1 1-9.22 0 4.61 4.61 0 0 1 9.22 0zM24.949 2.983a2.441 2.441 0 1 1-4.882 0 2.441 2.441 0 0 1 4.882 0zM5.424 9.492a2.441 2.441 0 1 1-4.882 0 2.441 2.441 0 0 1 4.882 0zM11.932 29.017a2.441 2.441 0 1 1-4.882 0 2.441 2.441 0 0 1 4.882 0zM31.458 22.508a2.441 2.441 0 1 1-4.882 0 2.441 2.441 0 0 1 4.882 0z" style="fill: var(--color2, #38bff2)"/><path fill="#1a2e35" d="M11.243 14.726a4.931 4.931 0 0 0 4.755 6.199 4.934 4.934 0 0 0 4.758-3.65c.34-1.27.166-2.597-.492-3.736s-1.72-1.954-2.99-2.294c-1.271-.341-2.598-.166-3.736.492s-1.954 1.72-2.294 2.99zm4.758-2.785c.347 0 .699.045 1.05.139 1.047.28 1.923.952 2.465 1.891s.686 2.033.406 3.08a4.063 4.063 0 0 1-4.971 2.871 4.064 4.064 0 0 1-2.871-4.971 4.065 4.065 0 0 1 3.922-3.009zm-8.555 2.134.032.001a.433.433 0 0 0 .431-.402C8.452 6.09 14.137 2.847 19.676 2.93c.02.444.144.88.373 1.276a2.784 2.784 0 0 0 1.703 1.307 2.794 2.794 0 0 0 2.128-.28c.5-.289.889-.716 1.131-1.227 2.02.78 3.905 1.944 5.606 3.473a.433.433 0 0 0 .579-.643c-1.799-1.617-3.797-2.844-5.94-3.662A2.806 2.806 0 0 0 23.204.097a2.806 2.806 0 0 0-3.431 1.974C12.759 1.915 7.55 6.613 7.048 13.614a.432.432 0 0 0 .4.462zM20.603 2.302A1.943 1.943 0 0 1 22.979.93c1.033.277 1.648 1.342 1.371 2.375s-1.343 1.648-2.375 1.371a1.941 1.941 0 0 1-1.371-2.375zM2.07 12.23c-.156 7.013 4.542 12.223 11.543 12.725l.032.001a.433.433 0 0 0 .031-.864C6.09 23.548 2.845 17.86 2.932 12.321c.444-.02.88-.141 1.276-.369.649-.374 1.113-.979 1.307-1.703s.094-1.479-.28-2.128A2.792 2.792 0 0 0 4.008 6.99c.78-2.02 1.944-3.905 3.473-5.606a.433.433 0 0 0-.643-.579c-1.617 1.799-2.844 3.797-3.662 5.94A2.806 2.806 0 0 0 .099 8.797a2.809 2.809 0 0 0 1.974 3.432zM.931 9.022A1.943 1.943 0 0 1 3.307 7.65c1.033.277 1.648 1.342 1.371 2.375s-1.343 1.648-2.375 1.371A1.941 1.941 0 0 1 .932 9.021zm23.623 8.903a.428.428 0 0 0-.462.4c-.543 7.584-6.227 10.831-11.767 10.744a2.792 2.792 0 0 0-.373-1.276c-.374-.649-.979-1.113-1.703-1.307s-1.479-.094-2.128.28c-.5.289-.889.716-1.131 1.227-2.02-.78-3.905-1.944-5.606-3.473a.433.433 0 0 0-.579.643c1.799 1.617 3.797 2.844 5.94 3.662a2.806 2.806 0 0 0 2.777 3.173 2.81 2.81 0 0 0 2.707-2.07c.113.003.227.008.339.008 6.841 0 11.892-4.662 12.385-11.551a.432.432 0 0 0-.4-.462zM11.397 29.698a1.942 1.942 0 0 1-2.375 1.371 1.941 1.941 0 0 1 1.005-3.747 1.941 1.941 0 0 1 1.371 2.375zM29.93 19.77c.156-7.013-4.541-12.223-11.543-12.725a.431.431 0 1 0-.062.862c7.584.543 10.83 6.23 10.744 11.767a2.804 2.804 0 0 0-1.076 5.335c-.78 2.02-1.944 3.905-3.473 5.606a.433.433 0 0 0 .643.579c1.616-1.798 2.843-3.795 3.662-5.938a2.81 2.81 0 0 0 3.079-2.054 2.809 2.809 0 0 0-1.974-3.432zm1.139 3.208c-.277 1.033-1.343 1.648-2.375 1.371s-1.648-1.342-1.371-2.375a1.943 1.943 0 0 1 2.376-1.372 1.941 1.941 0 0 1 1.371 2.375z" style="fill: var(--color3, #1a2e35)"/></symbol><symbol id="icon-f3" viewBox="0 0 32 32"><path fill="#fff" d="M31.505 3.901v16.265H.495V3.901a1.33 1.33 0 0 1 1.32-1.338h28.371c.729 0 1.32.599 1.32 1.338z" style="fill: var(--color1, #fff)"/><path fill="#38bff2" d="M.495 20.166v2.99a1.33 1.33 0 0 0 1.32 1.338h28.371a1.33 1.33 0 0 0 1.32-1.338v-2.99H.496z" style="fill: var(--color2, #38bff2)"/><path fill="#d7e9ff" d="M12.539 24.495h6.921v3.15h-6.921v-3.15z" style="fill: var(--color5, #d7e9ff)"/><path fill="#38bff2" d="m22.235 28.034.825.832c.209.211.062.572-.233.572H9.173c-.294 0-.441-.361-.233-.572l.825-.832c.247-.25.582-.39.931-.39h10.609c.349 0 .684.14.931.39z" style="fill: var(--color2, #38bff2)"/><path fill="#d7e9ff" d="M16 22.996c.363 0 .657-.298.657-.666s-.294-.666-.657-.666c-.363 0-.656.298-.656.666s.294.666.656.666z" style="fill: var(--color5, #d7e9ff)"/><path fill="#1a2e35" d="M31.835 3.9c0-.922-.74-1.673-1.649-1.673H1.815C.906 2.227.166 2.978.166 3.9v19.256c0 .922.74 1.673 1.649 1.673H12.21v2.48h-1.514c-.439 0-.852.173-1.163.487l-.825.832c-.416.42-.123 1.144.465 1.144h13.655c.587 0 .882-.723.465-1.144l-.825-.832a1.626 1.626 0 0 0-1.163-.487h-1.514v-2.48h10.395c.91 0 1.649-.751 1.649-1.673V3.9zm-31.01 0a.998.998 0 0 1 .99-1.004h28.371c.546 0 .99.45.99 1.004v15.931H.825V3.9zm21.177 24.371.825.832H9.172l.825-.833a.977.977 0 0 1 .697-.292h10.609a.98.98 0 0 1 .698.292zm-2.871-.962h-6.262v-2.48h6.262v2.48zm12.044-4.153a.998.998 0 0 1-.99 1.004H1.814a.998.998 0 0 1-.99-1.004v-2.655h30.351v2.655z" style="fill: var(--color3, #1a2e35)"/><path fill="#1a2e35" d="M16 23.331c.544 0 .986-.449.986-1S16.543 21.33 16 21.33c-.544 0-.986.449-.986 1.001s.443 1 .986 1zm0-1.332c.18 0 .327.149.327.331s-.147.331-.327.331c-.18 0-.327-.149-.327-.331s.147-.331.327-.331zM25.63 6.171H3.529c-.182 0-.33.15-.33.335s.148.335.33.335H25.63c.182 0 .33-.15.33-.335s-.148-.335-.33-.335zM25.63 8.457H3.529c-.182 0-.33.15-.33.335s.148.335.33.335H25.63c.182 0 .33-.15.33-.335s-.148-.335-.33-.335zM21.059 10.743H3.53c-.182 0-.33.15-.33.335s.148.335.33.335h17.529c.182 0 .33-.15.33-.335s-.148-.335-.33-.335zM16.488 13.029H3.53c-.182 0-.33.15-.33.335s.148.335.33.335h12.958c.182 0 .33-.15.33-.335s-.148-.335-.33-.335zM11.916 15.314H3.53c-.182 0-.33.15-.33.335s.148.335.33.335h8.386c.182 0 .33-.15.33-.335s-.148-.335-.33-.335z" style="fill: var(--color3, #1a2e35)"/></symbol><symbol id="icon-f4" viewBox="0 0 32 32"><path fill="#fff" d="M28.247 4.943v23.161a1.1 1.1 0 0 1-1.1 1.1H4.878a1.1 1.1 0 0 1-1.1-1.1v-1.442a2.146 2.146 0 0 1-1.52-.631 2.128 2.128 0 0 1-.631-1.523h2.151V4.943a1.1 1.1 0 0 1 1.1-1.1h22.269a1.1 1.1 0 0 1 1.1 1.1z" style="fill: var(--color1, #fff)"/><path fill="#38bff2" d="M3.862 26.404c-1.138 0-1.694-1.355-1.829-2.033l22.155-.203c.418 1.674 1.365 2.171 1.968 2.236h.268a1.14 1.14 0 0 1-.268 0H3.862zM8.525 12.379c-.96 0-1.74.779-1.74 1.736s.781 1.737 1.74 1.737a1.738 1.738 0 0 0 0-3.473z" style="fill: var(--color2, #38bff2)"/><path fill="#1a2e35" d="M8.525 12.379c-.96 0-1.74.779-1.74 1.736s.781 1.737 1.74 1.737a1.738 1.738 0 0 0 0-3.473zm0 2.894c-.64 0-1.161-.519-1.161-1.158a1.16 1.16 0 0 1 2.318 0 1.16 1.16 0 0 1-1.157 1.158z" style="fill: var(--color3, #1a2e35)"/><path fill="#38bff2" d="M13.668 12.379c-.96 0-1.74.779-1.74 1.736s.781 1.737 1.74 1.737c.958 0 1.737-.779 1.737-1.737s-.779-1.736-1.737-1.736z" style="fill: var(--color2, #38bff2)"/><path fill="#1a2e35" d="M13.668 12.379c-.96 0-1.74.779-1.74 1.736s.781 1.737 1.74 1.737c.958 0 1.737-.779 1.737-1.737s-.779-1.736-1.737-1.736zm0 2.894c-.64 0-1.161-.519-1.161-1.158a1.16 1.16 0 0 1 2.318 0 1.16 1.16 0 0 1-1.157 1.158z" style="fill: var(--color3, #1a2e35)"/><path fill="#38bff2" d="M18.811 12.414c-.96 0-1.74.779-1.74 1.736s.781 1.737 1.74 1.737c.958 0 1.737-.779 1.737-1.737s-.779-1.736-1.737-1.736z" style="fill: var(--color2, #38bff2)"/><path fill="#1a2e35" d="M18.811 12.379c-.96 0-1.74.779-1.74 1.736s.781 1.737 1.74 1.737c.958 0 1.737-.779 1.737-1.737s-.779-1.736-1.737-1.736zm0 2.894c-.64 0-1.161-.519-1.161-1.158a1.16 1.16 0 0 1 2.318 0 1.16 1.16 0 0 1-1.157 1.158z" style="fill: var(--color3, #1a2e35)"/><path fill="#38bff2" d="M23.954 15.852c.958 0 1.737-.779 1.737-1.737a1.738 1.738 0 0 0-3.477 0c0 .957.781 1.737 1.74 1.737z" style="fill: var(--color2, #38bff2)"/><path fill="#1a2e35" d="M23.954 15.852c.958 0 1.737-.779 1.737-1.737a1.738 1.738 0 0 0-3.477 0c0 .957.781 1.737 1.74 1.737zm0-2.894a1.158 1.158 0 1 1-.003 2.317 1.158 1.158 0 0 1 .003-2.317z" style="fill: var(--color3, #1a2e35)"/><path fill="#38bff2" d="M8.525 17.257c-.96 0-1.74.779-1.74 1.737s.781 1.736 1.74 1.736c.957 0 1.736-.779 1.736-1.736s-.779-1.737-1.736-1.737z" style="fill: var(--color2, #38bff2)"/><path fill="#1a2e35" d="M8.525 17.257c-.96 0-1.74.779-1.74 1.737s.781 1.736 1.74 1.736c.957 0 1.736-.779 1.736-1.736s-.779-1.737-1.736-1.737zm0 2.894c-.64 0-1.161-.519-1.161-1.157s.521-1.158 1.161-1.158a1.158 1.158 0 0 1 0 2.315z" style="fill: var(--color3, #1a2e35)"/><path fill="#38bff2" d="M13.668 17.257c-.96 0-1.74.779-1.74 1.737s.781 1.736 1.74 1.736c.958 0 1.737-.779 1.737-1.736s-.779-1.737-1.737-1.737z" style="fill: var(--color2, #38bff2)"/><path fill="#1a2e35" d="M13.668 17.257c-.96 0-1.74.779-1.74 1.737s.781 1.736 1.74 1.736c.958 0 1.737-.779 1.737-1.736s-.779-1.737-1.737-1.737zm0 2.894c-.64 0-1.161-.519-1.161-1.157s.521-1.158 1.161-1.158a1.158 1.158 0 0 1 0 2.315zM18.811 17.257c-.96 0-1.74.779-1.74 1.737s.781 1.736 1.74 1.736c.958 0 1.737-.779 1.737-1.736s-.779-1.737-1.737-1.737zm0 2.894c-.64 0-1.161-.519-1.161-1.157s.521-1.158 1.161-1.158a1.158 1.158 0 0 1 0 2.315zM25.69 18.994a1.739 1.739 0 0 0-3.477 0 1.738 1.738 0 0 0 3.477 0zm-1.736 1.157c-.64 0-1.161-.519-1.161-1.157s.521-1.158 1.161-1.158a1.158 1.158 0 0 1 0 2.315z" style="fill: var(--color3, #1a2e35)"/><path fill="#1a2e35" d="M27.372 3.303h-2.324V1.737a.29.29 0 0 0-.58 0v1.566H7.314V1.737a.29.29 0 0 0-.58 0v1.566H5.101c-.766 0-1.39.623-1.39 1.39L3.71 23.969H1.848a.29.29 0 0 0-.29.29c0 1.286.971 2.284 2.152 2.423v1.172c0 .766.623 1.39 1.39 1.39h22.269c.766 0 1.39-.623 1.39-1.39V4.693c0-.766-.623-1.39-1.39-1.39zm-22.269.579h1.633V6.18a.29.29 0 0 0 .58 0V3.882H24.47V6.18a.29.29 0 0 0 .58 0V3.882h2.324c.447 0 .811.364.811.811v3.784H4.296V4.692c0-.447.364-.811.811-.811zm-.811 5.174h23.89v15.201a1.865 1.865 0 0 1-1.861 1.864h-.003a1.863 1.863 0 0 1-1.863-1.863.29.29 0 0 0-.29-.29H4.291V9.056zm-2.13 15.491h21.732c.073.617.375 1.173.847 1.574H4.004a1.863 1.863 0 0 1-1.841-1.574zm26.02 3.306a.812.812 0 0 1-.811.811H5.102a.812.812 0 0 1-.811-.811V26.7H26.32c.746 0 1.414-.338 1.862-.867v2.02z" style="fill: var(--color3, #1a2e35)"/></symbol><symbol id="icon-f5" viewBox="0 0 32 32"><path fill="#fff" stroke="#000" stroke-width=".75" d="M.375 4.75A2.625 2.625 0 0 1 3 2.125h18.663a2.625 2.625 0 0 1 2.625 2.625v14.279a2.625 2.625 0 0 1-2.625 2.625H9.709c-.858 0-1.703.205-2.465.599l-5.958 3.075a.625.625 0 0 1-.912-.555V4.751z" style="fill: var(--color1, #fff)"/><path stroke-width=".75" d="M25.863 8.327h2.377a3 3 0 0 1 3 3v17.162a1 1 0 0 1-1.512.859l-4.325-2.581a5.003 5.003 0 0 0-2.562-.706h-9.218a2.661 2.661 0 0 1-2.661-2.661"/><path fill="#38bff2" stroke="#000" stroke-width=".75" d="M6.029 7.952h13.154a.923.923 0 1 1 0 1.846H6.029a.923.923 0 1 1 0-1.846zM6.029 11.788h9.865a.923.923 0 1 1 0 1.846H6.029a.923.923 0 1 1 0-1.846z" style="fill: var(--color2, #38bff2)"/></symbol><symbol id="icon-f6" viewBox="0 0 32 32"><path fill="#38bff2" d="M27.073 27.076c6.117-6.117 6.117-16.035 0-22.153s-16.035-6.117-22.153 0c-6.117 6.117-6.117 16.035 0 22.153s16.035 6.117 22.153 0z" style="fill: var(--color2, #38bff2)"/><path fill="#fff" d="M16 28.333c6.812 0 12.333-5.522 12.333-12.333S22.811 3.667 16 3.667 3.667 9.189 3.667 16c0 6.812 5.522 12.333 12.333 12.333z" style="fill: var(--color1, #fff)"/><path fill="#1a2e35" d="M16 0C7.178 0 0 7.178 0 16s7.178 16 16 16 16-7.178 16-16S24.822 0 16 0zm0 31.333C7.545 31.333.667 24.454.667 16S7.546.667 16 .667C24.455.667 31.333 7.546 31.333 16S24.454 31.333 16 31.333z" style="fill: var(--color3, #1a2e35)"/><path fill="#1a2e35" d="M16 3.333C9.016 3.333 3.333 9.015 3.333 16S9.015 28.667 16 28.667 28.667 22.985 28.667 16c0-6.984-5.682-12.667-12.667-12.667zM16 28C9.383 28 4 22.617 4 16S9.383 4 16 4s12 5.383 12 12-5.383 12-12 12z" style="fill: var(--color3, #1a2e35)"/><path fill="#1a2e35" d="M17.335 8.794h-4.433c-.006 0-.01-.003-.016-.003a.333.333 0 0 0-.333.333v6.377h-1.24a.333.333 0 1 0 0 .666h1.24v1.411h-1.24a.333.333 0 1 0 0 .666h1.24v4.629a.333.333 0 1 0 .666 0v-4.629h6.015a.333.333 0 1 0 0-.666h-6.015v-1.411h3.883c2.044 0 3.761-1.489 3.909-3.39a3.683 3.683 0 0 0-3.676-3.983zm3.011 3.932c-.121 1.556-1.546 2.776-3.244 2.776h-3.883V9.461h4.116a3.017 3.017 0 0 1 3.011 3.265z" style="fill: var(--color3, #1a2e35)"/></symbol><symbol id="icon-f7" viewBox="0 0 32 32"><path fill="#fff" d="M20.942 2.144v27.711c0 .911-.738 1.649-1.649 1.649H4.399a1.649 1.649 0 0 1-1.649-1.649V2.144A1.65 1.65 0 0 1 4.399.495h14.894a1.65 1.65 0 0 1 1.649 1.649z" style="fill: var(--color1, #fff)"/><path fill="#38bff2" d="M16.434.495v1.317a1.32 1.32 0 0 1-1.32 1.32H8.575a1.32 1.32 0 0 1-1.32-1.32V.495h9.178zM29.251 11.075v10.51a1.32 1.32 0 0 1-1.32 1.32H11.845V9.755h16.086c.729 0 1.32.591 1.32 1.32z" style="fill: var(--color2, #38bff2)"/><path fill="#d7e9ff" d="M11.845 12.452H29.25v3.27H11.845v-3.27z" style="fill: var(--color5, #d7e9ff)"/><path fill="#1a2e35" d="M7.497 29.196a.33.33 0 0 0 0 .66h8.698a.33.33 0 0 0 0-.66H7.497zM14.238 2.143h.589a.33.33 0 0 0 0-.66h-.589a.33.33 0 0 0 0 .66zM8.864 2.143h3.829a.33.33 0 0 0 0-.66H8.864a.33.33 0 0 0 0 .66z" style="fill: var(--color3, #1a2e35)"/><path fill="#1a2e35" d="M27.931 9.425h-6.659V2.144A1.982 1.982 0 0 0 19.293.165H4.399A1.982 1.982 0 0 0 2.42 2.144v27.711a1.98 1.98 0 0 0 1.979 1.979h14.894a1.98 1.98 0 0 0 1.979-1.979v-6.621h6.659c.91 0 1.649-.74 1.649-1.649v-10.51c0-.909-.74-1.649-1.649-1.649zm.99 1.65v1.047H12.175v-2.037h15.756c.546 0 .99.444.99.99zm0 4.317H12.175v-2.61h16.746v2.61zM16.105.825v.987c0 .546-.444.99-.99.99H8.577a.991.991 0 0 1-.99-.99V.825h8.518zm4.507 29.031c0 .728-.592 1.32-1.32 1.32H4.398c-.728 0-1.32-.592-1.32-1.32V2.145c0-.728.592-1.32 1.32-1.32h2.528v.987c0 .91.74 1.649 1.649 1.649h6.538c.91 0 1.649-.74 1.649-1.649V.825h2.528c.728 0 1.32.592 1.32 1.32v7.281h-8.437V7.938a.33.33 0 0 0-.66 0V24.72a.33.33 0 0 0 .66 0v-1.485h8.437v6.621zm7.319-7.281H12.175v-4.032h10.907a.33.33 0 0 0 0-.66H12.175v-1.831h16.746v5.534c0 .546-.444.99-.99.99z" style="fill: var(--color3, #1a2e35)"/><path fill="#1a2e35" d="M23.082 20.084h-.945a.33.33 0 0 0 0 .66h.945a.33.33 0 0 0 0-.66zM20.38 20.084h-.945a.33.33 0 0 0 0 .66h.945a.33.33 0 0 0 0-.66zM17.679 20.084h-.945a.33.33 0 0 0 0 .66h.945a.33.33 0 0 0 0-.66zM14.978 20.084h-.945a.33.33 0 0 0 0 .66h.945a.33.33 0 0 0 0-.66z" style="fill: var(--color3, #1a2e35)"/></symbol><symbol id="icon-fb" viewBox="0 0 32 32"><path fill="#fff" d="M19.237 7.366h3.814V1.832h-4.483v.02c-5.432.189-6.545 3.188-6.644 6.339h-.011v2.763H8.214v5.419h3.699V30.9h5.574V16.373h4.567l.882-5.419h-5.447v-1.67c0-1.065.721-1.919 1.748-1.919z" style="fill: var(--color1, #fff)"/></symbol><symbol id="icon-inst" viewBox="0 0 32 32"><path fill="#fff" d="M22.57 1.156H8.779c-4.489 0-8.14 3.652-8.14 8.14v13.792c0 4.489 3.652 8.14 8.14 8.14h13.792c4.488 0 8.14-3.652 8.14-8.14V9.296c0-4.489-3.652-8.14-8.14-8.14zm-6.895 23.258c-4.534 0-8.223-3.689-8.223-8.223s3.689-8.223 8.223-8.223c4.534 0 8.223 3.689 8.223 8.223s-3.689 8.223-8.223 8.223zm8.419-14.505c-1.34 0-2.43-1.09-2.43-2.43s1.09-2.43 2.43-2.43 2.43 1.09 2.43 2.43-1.09 2.43-2.43 2.43z" style="fill: var(--color1, #fff)"/></symbol><symbol id="icon-ipone" viewBox="0 0 32 32"><path fill="#f9f8fd" stroke="#c4c4c4" stroke-width="3.2" d="M10.667 1.6h10.362a3.733 3.733 0 0 1 3.733 3.733v21.333a3.733 3.733 0 0 1-3.733 3.733H10.667a3.733 3.733 0 0 1-3.733-3.733V5.333A3.733 3.733 0 0 1 10.667 1.6z" style="fill: var(--color6, #f9f8fd); stroke: var(--color7, #c4c4c4)"/><path fill="#c4c4c4" d="M13.867 1.067h4.267a2.133 2.133 0 0 1 0 4.266h-4.267a2.133 2.133 0 0 1 0-4.266z" style="fill: var(--color7, #c4c4c4)"/></symbol><symbol id="icon-logo"><path d="M11.698 14.723v5.538c.056.496.527 1.487 1.961 1.487h2.062v-1.116h-2.062c-.293 0-.879-.162-.879-.811v-5.099h2.434v-1.217H12.78v-2.034h-1.082v2.034H10.21v1.217h1.488zM27.977 14.723v5.538c.056.496.527 1.487 1.961 1.487H32v-1.116h-2.062c-.293 0-.879-.162-.879-.811v-5.099h2.434v-1.217h-2.434v-2.034h-1.082v2.034h-1.488v1.217h1.488z" style="fill: var(--color8, #000)"/><path fill="#38bff2" d="M0 10h1.378l3.185 5.561L7.81 10h1.411l-4.04 6.94v4.809H3.805V16.94h-.003L-.001 10z" style="fill: var(--color2, #38bff2)"/><path fill="#f15525" d="M16.279 10h1.378l3.185 5.561L24.089 10H25.5l-4.04 6.94v4.809h-1.376V16.94h-.003L16.278 10z" style="fill: var(--color9, #f15525)"/></symbol><symbol id="icon-menu"><path fill="#f15525" d="M1.882 2.824h28.235a1.882 1.882 0 1 1 0 3.764H1.882a1.882 1.882 0 1 1 0-3.764zM1.882 14.118h28.235a1.882 1.882 0 1 1 0 3.764H1.882a1.882 1.882 0 1 1 0-3.764zM1.882 25.412h28.235a1.882 1.882 0 1 1 0 3.764H1.882a1.882 1.882 0 1 1 0-3.764z" style="fill: var(--color9, #f15525)"/></symbol><symbol id="icon-triangle" viewBox="0 0 32 32"><path fill="#fff" d="M26.33 14.026c1.512.882 1.512 3.067 0 3.949L5.724 29.995c-1.524.889-3.437-.21-3.437-1.974V3.98c0-1.764 1.914-2.863 3.437-1.974l20.606 12.02z" style="fill: var(--color1, #fff)"/></symbol><symbol id="icon-vk" viewBox="0 0 32 32"><path fill="#fff" d="M15.759 24.732h1.785s.539-.059.814-.355c.253-.272.245-.782.245-.782s-.035-2.388 1.076-2.74c1.096-.346 2.502 2.308 3.994 3.329 1.127.772 1.984.603 1.984.603l3.987-.055s2.085-.128 1.096-1.764c-.081-.134-.576-1.21-2.964-3.421-2.5-2.314-2.165-1.94.846-5.943 1.834-2.438 2.567-3.926 2.338-4.564-.219-.607-1.567-.447-1.567-.447l-4.489.028s-.333-.045-.58.102c-.241.144-.396.481-.396.481s-.71 1.886-1.658 3.491c-1.999 3.385-2.798 3.564-3.125 3.354-.76-.49-.57-1.968-.57-3.018 0-3.281.499-4.649-.972-5.003-.488-.118-.847-.195-2.095-.208-1.602-.017-2.957.005-3.725.38-.511.249-.905.805-.665.837.297.04.969.181 1.325.665.46.624.444 2.026.444 2.026s.264 3.862-.617 4.342c-.605.329-1.435-.343-3.217-3.414C8.14 11.083 7.45 9.344 7.45 9.344s-.133-.325-.37-.499c-.288-.211-.69-.278-.69-.278l-4.266.028s-.64.018-.875.295c-.209.247-.017.758-.017.758s3.34 7.793 7.121 11.72c3.467 3.6 7.405 3.364 7.405 3.364z" style="fill: var(--color1, #fff)"/></symbol><symbol id="icon-yt" viewBox="0 0 32 32"><path fill="#fff" d="M29.674 7.116c-1.081-1.285-3.077-1.809-6.889-1.809H8.948c-3.899 0-5.929.558-7.006 1.926-1.05 1.334-1.05 3.3-1.05 6.02v5.185c0 5.27 1.246 7.946 8.056 7.946h13.837c3.306 0 5.138-.462 6.323-1.597 1.215-1.163 1.734-3.062 1.734-6.349v-5.185c0-2.869-.081-4.846-1.167-6.137zm-9.555 9.445-6.283 3.284a.968.968 0 0 1-.948-.03.966.966 0 0 1-.466-.826v-6.547a.967.967 0 0 1 1.412-.858l6.283 3.263a.967.967 0 0 1 .002 1.714z" style="fill: var(--color1, #fff)"/></symbol><symbol id="icon-burger" viewBox="0 0 58 32"><path fill="#fff" d="M0 0h58.182v2.909H0V0zM0 14.545h58.182v2.909H0v-2.909zM0 29.091h58.182V32H0v-2.909z" style="fill: var(--color1, #fff)"/></symbol><symbol id="icon-close" viewBox="0 0 49 32"><path fill="#fff" d="M2.683 27.077 45.318 2.462l1.231 2.132L3.914 29.209l-1.231-2.132z" style="fill: var(--color1, #fff)"/><path fill="#fff" d="m3.913 2.626 42.635 24.615-1.231 2.132L2.682 4.758l1.231-2.132z" style="fill: var(--color1, #fff)"/></symbol></defs></svg>